<svg width="32" height="32" viewBox="0 0 32 32" fill="none" xmlns="http://www.w3.org/2000/svg">
<path d="M14.6007 14.0001L13.6673 13.0667C13.4007 12.8001 13.0895 12.6667 12.734 12.6667C12.3784 12.6667 12.0673 12.8001 11.8007 13.0667C11.534 13.3334 11.4007 13.6503 11.4007 14.0174C11.4007 14.3845 11.534 14.701 11.8007 14.9667L13.6673 16.8667C13.934 17.1334 14.2451 17.2667 14.6007 17.2667C14.9562 17.2667 15.2673 17.1334 15.534 16.8667L20.2673 12.1334C20.534 11.8667 20.6673 11.5503 20.6673 11.1841C20.6673 10.8179 20.534 10.501 20.2673 10.2334C20.0007 9.96586 19.6842 9.83253 19.318 9.83342C18.9518 9.8343 18.6349 9.96764 18.3673 10.2334L14.6007 14.0001ZM16.0007 25.8001C18.7118 23.3112 20.7229 21.0503 22.034 19.0174C23.3451 16.9845 24.0007 15.1787 24.0007 13.6001C24.0007 11.1779 23.2287 9.19475 21.6847 7.65075C20.1407 6.10675 18.246 5.3343 16.0007 5.33341C13.7553 5.33253 11.8611 6.10497 10.318 7.65075C8.77487 9.19653 8.00243 11.1796 8.00065 13.6001C8.00065 15.1779 8.65621 16.9836 9.96732 19.0174C11.2784 21.0512 13.2895 23.3121 16.0007 25.8001ZM16.0007 28.4334C15.6895 28.4334 15.3784 28.3779 15.0673 28.2668C14.7562 28.1556 14.4784 27.989 14.234 27.7668C12.7895 26.4334 11.5118 25.1334 10.4007 23.8667C9.28954 22.6001 8.36198 21.3725 7.61798 20.1841C6.87398 18.9956 6.30732 17.8512 5.91798 16.7507C5.52865 15.6503 5.33398 14.6001 5.33398 13.6001C5.33398 10.2667 6.40643 7.61119 8.55132 5.63341C10.6962 3.65564 13.1793 2.66675 16.0007 2.66675C18.822 2.66675 21.3055 3.65564 23.4513 5.63341C25.5971 7.61119 26.6691 10.2667 26.6673 13.6001C26.6673 14.6001 26.4731 15.6503 26.0847 16.7507C25.6962 17.8512 25.1295 18.9956 24.3847 20.1841C23.6398 21.3725 22.7118 22.6001 21.6007 23.8667C20.4895 25.1334 19.2118 26.4334 17.7673 27.7668C17.5229 27.989 17.2451 28.1556 16.934 28.2668C16.6229 28.3779 16.3118 28.4334 16.0007 28.4334Z" fill="black"/>
</svg>
