<svg width="27" height="79" viewBox="0 0 27 79" fill="none" xmlns="http://www.w3.org/2000/svg">
<path d="M0.194188 16.0949C-0.082962 14.1859 0.0538944 12.2395 0.595467 10.3881C1.13704 8.5366 2.07065 6.82334 3.33291 5.36459C4.59517 3.90585 6.15652 2.73578 7.91097 1.93382C9.66542 1.13186 11.5719 0.716797 13.5009 0.716797C15.43 0.716797 17.3365 1.13186 19.0909 1.93382C20.8454 2.73578 22.4067 3.90585 23.669 5.36459C24.9312 6.82334 25.8648 8.5366 26.4064 10.3881C26.948 12.2395 27.0848 14.1859 26.8077 16.0949L22.3437 47.3274C22.0347 49.4522 20.971 51.3947 19.3472 52.7994C17.7234 54.2042 15.6481 54.9773 13.5009 54.9773C11.3538 54.9773 9.27848 54.2042 7.65467 52.7994C6.03086 51.3947 4.96716 49.4522 4.65819 47.3274L0.194188 16.0949ZM21.2509 70.4999C21.2509 72.5553 20.4344 74.5266 18.981 75.98C17.5276 77.4334 15.5564 78.2499 13.5009 78.2499C11.4455 78.2499 9.47427 77.4334 8.02086 75.98C6.56746 74.5266 5.75094 72.5553 5.75094 70.4999C5.75094 68.4445 6.56746 66.4732 8.02086 65.0198C9.47427 63.5664 11.4455 62.7499 13.5009 62.7499C15.5564 62.7499 17.5276 63.5664 18.981 65.0198C20.4344 66.4732 21.2509 68.4445 21.2509 70.4999Z" fill="#333333"/>
</svg>
