<svg width="33" height="33" viewBox="0 0 33 33" fill="none" xmlns="http://www.w3.org/2000/svg">
<path d="M24.4135 19.25C25.2335 19.2507 26.0197 19.577 26.5993 20.1571C27.1789 20.7372 27.5045 21.5237 27.5045 22.3437V23.1343C27.5045 24.3636 27.0645 25.553 26.267 26.4866C24.1082 29.007 20.8261 30.2513 16.5004 30.2513C12.1746 30.2513 8.89386 29.007 6.74061 26.4838C5.94395 25.5507 5.50614 24.364 5.50586 23.1371V22.3423C5.50622 21.5223 5.83214 20.736 6.412 20.1561C6.99185 19.5762 7.7782 19.2503 8.59823 19.25H24.4135ZM24.4135 21.3125H8.59686C8.32335 21.3125 8.06105 21.4211 7.86766 21.6145C7.67426 21.8079 7.56561 22.0702 7.56561 22.3437V23.1371C7.56561 23.8727 7.82961 24.585 8.30811 25.1446C10.031 27.1645 12.7356 28.1888 16.499 28.1888C20.2651 28.1888 22.9697 27.1645 24.6981 25.146C25.1775 24.5854 25.4408 23.872 25.4406 23.1343V22.3423C25.4403 22.0695 25.3318 21.808 25.1391 21.615C24.9463 21.422 24.6863 21.3132 24.4135 21.3125ZM16.5004 2.75684C17.4032 2.75684 18.2972 2.93466 19.1313 3.28016C19.9654 3.62566 20.7233 4.13207 21.3617 4.77048C22.0001 5.40888 22.5065 6.16677 22.852 7.00089C23.1975 7.835 23.3754 8.729 23.3754 9.63184C23.3754 10.5347 23.1975 11.4287 22.852 12.2628C22.5065 13.0969 22.0001 13.8548 21.3617 14.4932C20.7233 15.1316 19.9654 15.638 19.1313 15.9835C18.2972 16.329 17.4032 16.5068 16.5004 16.5068C14.677 16.5068 12.9283 15.7825 11.639 14.4932C10.3497 13.2039 9.62536 11.4552 9.62536 9.63184C9.62536 7.80847 10.3497 6.05979 11.639 4.77048C12.9283 3.48116 14.677 2.75684 16.5004 2.75684ZM16.5004 4.81934C15.8684 4.81934 15.2426 4.94381 14.6587 5.18567C14.0748 5.42752 13.5443 5.782 13.0974 6.22888C12.6505 6.67577 12.296 7.20629 12.0542 7.79017C11.8123 8.37405 11.6879 8.99985 11.6879 9.63184C11.6879 10.2638 11.8123 10.8896 12.0542 11.4735C12.296 12.0574 12.6505 12.5879 13.0974 13.0348C13.5443 13.4817 14.0748 13.8362 14.6587 14.078C15.2426 14.3199 15.8684 14.4443 16.5004 14.4443C17.7767 14.4443 19.0008 13.9373 19.9033 13.0348C20.8058 12.1323 21.3129 10.9082 21.3129 9.63184C21.3129 8.35548 20.8058 7.1314 19.9033 6.22888C19.0008 5.32637 17.7767 4.81934 16.5004 4.81934Z" fill="#333333"/>
</svg>
