<svg width="33" height="33" viewBox="0 0 33 33" fill="none" xmlns="http://www.w3.org/2000/svg">
<path d="M16.5003 2.35718C22.0331 2.35718 26.5181 6.48218 26.5181 13.5536C26.5181 16.361 24.9394 19.8177 23.0355 22.9669L22.7155 23.4884C22.6074 23.6612 22.4992 23.8329 22.3908 24.0034L22.062 24.5108L21.897 24.7612L21.5664 25.2556L21.2346 25.7389L20.9046 26.2121L20.577 26.6729L20.2529 27.1207L19.9335 27.5539L19.6205 27.9722L19.3147 28.3741L18.8733 28.9457L18.4561 29.4749L18.0672 29.9593L17.9452 30.1102C17.1473 31.0554 15.8079 31.0177 15.0559 30.1102L14.6776 29.6423L14.2698 29.1273L13.9829 28.7601L13.6864 28.3747L13.225 27.7654L12.9086 27.3394L12.5868 26.8992L12.261 26.4448L11.9315 25.9781L11.6004 25.4996L11.2692 25.0105C11.1592 24.8455 11.0492 24.6791 10.9392 24.5114L10.6104 24.0046L10.2857 23.489L9.96569 22.9674C8.06112 19.8177 6.48242 16.361 6.48242 13.5536C6.48242 6.48218 10.9675 2.35718 16.5003 2.35718ZM16.5003 4.71432C12.0087 4.71432 8.83956 8.06264 8.83956 13.5536C8.83956 15.5248 9.86846 18.1571 11.5562 21.0652L11.8526 21.5661L12.1608 22.0723L12.4814 22.5832L12.6458 22.8402L12.9834 23.3564L13.3323 23.8767L13.6917 24.4L14.0612 24.9256L14.4407 25.4536L14.634 25.7188L15.0277 26.2492L15.3842 26.72L15.568 26.9587C15.6782 27.101 15.8194 27.2161 15.981 27.2954C16.1425 27.3746 16.3201 27.4158 16.5 27.4158C16.6799 27.4158 16.8575 27.3746 17.019 27.2954C17.1805 27.2161 17.3218 27.101 17.4319 26.9587L17.7667 26.5226L18.165 25.9899L18.5545 25.4595L18.9346 24.9309L19.3053 24.4041L19.6647 23.8802C19.7834 23.7062 19.8999 23.5326 20.0142 23.3593L20.3524 22.8425C20.6298 22.4127 20.8946 21.9877 21.1468 21.5673L21.4426 21.0664C23.1327 18.1559 24.161 15.5236 24.161 13.5536C24.161 8.06264 20.9918 4.71432 16.5003 4.71432ZM16.5003 7.66075C17.7506 7.66075 18.9497 8.15743 19.8338 9.04153C20.7179 9.92563 21.2146 11.1247 21.2146 12.375C21.2146 13.6253 20.7179 14.8244 19.8338 15.7085C18.9497 16.5926 17.7506 17.0893 16.5003 17.0893C15.25 17.0893 14.0509 16.5926 13.1668 15.7085C12.2827 14.8244 11.786 13.6253 11.786 12.375C11.786 11.1247 12.2827 9.92563 13.1668 9.04153C14.0509 8.15743 15.25 7.66075 16.5003 7.66075ZM16.5003 10.0179C15.8751 10.0179 15.2756 10.2662 14.8335 10.7083C14.3915 11.1503 14.1431 11.7499 14.1431 12.375C14.1431 13.0002 14.3915 13.5997 14.8335 14.0418C15.2756 14.4838 15.8751 14.7322 16.5003 14.7322C17.1254 14.7322 17.725 14.4838 18.167 14.0418C18.6091 13.5997 18.8574 13.0002 18.8574 12.375C18.8574 11.7499 18.6091 11.1503 18.167 10.7083C17.725 10.2662 17.1254 10.0179 16.5003 10.0179Z" fill="black"/>
</svg>
