<svg width="20" height="19" viewBox="0 0 20 19" fill="none" xmlns="http://www.w3.org/2000/svg">
<path d="M10 0C15.523 0 20 4.1047 20 9.16842C20 14.2321 15.523 18.3368 10 18.3368C4.477 18.3368 0 14.2321 0 9.16842C0 4.1047 4.477 0 10 0ZM10 1.83368C7.87827 1.83368 5.84344 2.60645 4.34315 3.98198C2.84285 5.35751 2 7.22313 2 9.16842C2 11.1137 2.84285 12.9793 4.34315 14.3549C5.84344 15.7304 7.87827 16.5032 10 16.5032C12.1217 16.5032 14.1566 15.7304 15.6569 14.3549C17.1571 12.9793 18 11.1137 18 9.16842C18 7.22313 17.1571 5.35751 15.6569 3.98198C14.1566 2.60645 12.1217 1.83368 10 1.83368ZM10 3.66737C10.2449 3.6674 10.4813 3.74985 10.6644 3.89907C10.8474 4.04829 10.9643 4.25392 10.993 4.47694L11 4.58421V8.78885L13.707 11.2707C13.8863 11.4357 13.9905 11.6571 13.9982 11.89C14.006 12.1228 13.9168 12.3496 13.7488 12.5243C13.5807 12.699 13.3464 12.8086 13.0935 12.8307C12.8406 12.8527 12.588 12.7857 12.387 12.6433L12.293 12.5672L9.293 9.81663C9.13758 9.67401 9.03776 9.4884 9.009 9.28853L9 9.16842V4.58421C9 4.34105 9.10536 4.10785 9.29289 3.93591C9.48043 3.76397 9.73478 3.66737 10 3.66737Z" fill="black"/>
</svg>
