<svg width="53" height="53" viewBox="0 0 53 53" fill="none" xmlns="http://www.w3.org/2000/svg">
<rect y="0.31543" width="52.4833" height="52.5435" rx="26.2417" fill="#BDBFFA"/>
<path d="M33.0236 25.3631H18.3415V19.2456H33.0236M31.1883 32.7041C30.7016 32.7041 30.2348 32.5107 29.8906 32.1666C29.5464 31.8224 29.3531 31.3556 29.3531 30.8688C29.3531 30.3821 29.5464 29.9153 29.8906 29.5711C30.2348 29.2269 30.7016 29.0336 31.1883 29.0336C31.675 29.0336 32.1418 29.2269 32.486 29.5711C32.8302 29.9153 33.0236 30.3821 33.0236 30.8688C33.0236 31.3556 32.8302 31.8224 32.486 32.1666C32.1418 32.5107 31.675 32.7041 31.1883 32.7041ZM20.1768 32.7041C19.69 32.7041 19.2232 32.5107 18.8791 32.1666C18.5349 31.8224 18.3415 31.3556 18.3415 30.8688C18.3415 30.3821 18.5349 29.9153 18.8791 29.5711C19.2232 29.2269 19.69 29.0336 20.1768 29.0336C20.6635 29.0336 21.1303 29.2269 21.4745 29.5711C21.8187 29.9153 22.012 30.3821 22.012 30.8688C22.012 31.3556 21.8187 31.8224 21.4745 32.1666C21.1303 32.5107 20.6635 32.7041 20.1768 32.7041ZM15.8945 31.4806C15.8945 32.5573 16.3717 33.5238 17.118 34.1968V36.3746C17.118 36.6991 17.2469 37.0103 17.4764 37.2397C17.7058 37.4692 18.017 37.5981 18.3415 37.5981H19.565C19.8895 37.5981 20.2007 37.4692 20.4302 37.2397C20.6596 37.0103 20.7885 36.6991 20.7885 36.3746V35.1511H30.5766V36.3746C30.5766 36.6991 30.7055 37.0103 30.9349 37.2397C31.1644 37.4692 31.4756 37.5981 31.8001 37.5981H33.0236C33.348 37.5981 33.6593 37.4692 33.8887 37.2397C34.1182 37.0103 34.2471 36.6991 34.2471 36.3746V34.1968C34.9934 33.5238 35.4706 32.5573 35.4706 31.4806V19.2456C35.4706 14.9633 31.0904 14.3516 25.6825 14.3516C20.2747 14.3516 15.8945 14.9633 15.8945 19.2456V31.4806Z" fill="#46278D"/>
</svg>
