<svg width="53" height="53" viewBox="0 0 53 53" fill="none" xmlns="http://www.w3.org/2000/svg">
<rect y="0.37915" width="52.4833" height="52.5435" rx="26.2417" fill="#E0F9C7"/>
<path d="M40.5703 36.3145H39.5468V20.9619C39.5468 20.6905 39.439 20.4301 39.2471 20.2382C39.0551 20.0462 38.7948 19.9384 38.5233 19.9384H30.3353C30.0638 19.9384 29.8035 20.0462 29.6116 20.2382C29.4196 20.4301 29.3118 20.6905 29.3118 20.9619V26.0794H23.1707V14.8209C23.1707 14.5494 23.0629 14.2891 22.871 14.0971C22.679 13.9052 22.4187 13.7974 22.1472 13.7974H13.9592C13.6877 13.7974 13.4274 13.9052 13.2355 14.0971C13.0435 14.2891 12.9357 14.5494 12.9357 14.8209V36.3145H11.9122C11.6407 36.3145 11.3804 36.4223 11.1884 36.6143C10.9965 36.8062 10.8887 37.0666 10.8887 37.338C10.8887 37.6095 10.9965 37.8698 11.1884 38.0617C11.3804 38.2537 11.6407 38.3615 11.9122 38.3615H40.5703C40.8418 38.3615 41.1021 38.2537 41.2941 38.0617C41.486 37.8698 41.5939 37.6095 41.5939 37.338C41.5939 37.0666 41.486 36.8062 41.2941 36.6143C41.1021 36.4223 40.8418 36.3145 40.5703 36.3145ZM19.0767 33.244C19.0767 33.5154 18.9689 33.7758 18.7769 33.9677C18.585 34.1597 18.3247 34.2675 18.0532 34.2675C17.7818 34.2675 17.5214 34.1597 17.3295 33.9677C17.1375 33.7758 17.0297 33.5154 17.0297 33.244V31.197C17.0297 30.9255 17.1375 30.6652 17.3295 30.4732C17.5214 30.2813 17.7818 30.1735 18.0532 30.1735C18.3247 30.1735 18.585 30.2813 18.7769 30.4732C18.9689 30.6652 19.0767 30.9255 19.0767 31.197V33.244ZM19.0767 27.1029C19.0767 27.3744 18.9689 27.6347 18.7769 27.8267C18.585 28.0186 18.3247 28.1264 18.0532 28.1264C17.7818 28.1264 17.5214 28.0186 17.3295 27.8267C17.1375 27.6347 17.0297 27.3744 17.0297 27.1029V25.0559C17.0297 24.7845 17.1375 24.5241 17.3295 24.3322C17.5214 24.1403 17.7818 24.0324 18.0532 24.0324C18.3247 24.0324 18.585 24.1403 18.7769 24.3322C18.9689 24.5241 19.0767 24.7845 19.0767 25.0559V27.1029ZM19.0767 20.9619C19.0767 21.2334 18.9689 21.4937 18.7769 21.6856C18.585 21.8776 18.3247 21.9854 18.0532 21.9854C17.7818 21.9854 17.5214 21.8776 17.3295 21.6856C17.1375 21.4937 17.0297 21.2334 17.0297 20.9619V18.9149C17.0297 18.6434 17.1375 18.3831 17.3295 18.1912C17.5214 17.9992 17.7818 17.8914 18.0532 17.8914C18.3247 17.8914 18.585 17.9992 18.7769 18.1912C18.9689 18.3831 19.0767 18.6434 19.0767 18.9149V20.9619ZM27.2648 33.244C27.2648 33.5154 27.1569 33.7758 26.965 33.9677C26.773 34.1597 26.5127 34.2675 26.2413 34.2675C25.9698 34.2675 25.7095 34.1597 25.5175 33.9677C25.3256 33.7758 25.2178 33.5154 25.2178 33.244V31.197C25.2178 30.9255 25.3256 30.6652 25.5175 30.4732C25.7095 30.2813 25.9698 30.1735 26.2413 30.1735C26.5127 30.1735 26.773 30.2813 26.965 30.4732C27.1569 30.6652 27.2648 30.9255 27.2648 31.197V33.244ZM35.4528 33.244C35.4528 33.5154 35.345 33.7758 35.153 33.9677C34.9611 34.1597 34.7008 34.2675 34.4293 34.2675C34.1579 34.2675 33.8975 34.1597 33.7056 33.9677C33.5136 33.7758 33.4058 33.5154 33.4058 33.244V31.197C33.4058 30.9255 33.5136 30.6652 33.7056 30.4732C33.8975 30.2813 34.1579 30.1735 34.4293 30.1735C34.7008 30.1735 34.9611 30.2813 35.153 30.4732C35.345 30.6652 35.4528 30.9255 35.4528 31.197V33.244ZM35.4528 27.1029C35.4528 27.3744 35.345 27.6347 35.153 27.8267C34.9611 28.0186 34.7008 28.1264 34.4293 28.1264C34.1579 28.1264 33.8975 28.0186 33.7056 27.8267C33.5136 27.6347 33.4058 27.3744 33.4058 27.1029V25.0559C33.4058 24.7845 33.5136 24.5241 33.7056 24.3322C33.8975 24.1403 34.1579 24.0324 34.4293 24.0324C34.7008 24.0324 34.9611 24.1403 35.153 24.3322C35.345 24.5241 35.4528 24.7845 35.4528 25.0559V27.1029Z" fill="#79A800"/>
</svg>
