<svg  width="1280" height="1330" viewBox="0 0 1280 1330" fill="none" xmlns="http://www.w3.org/2000/svg">
<path d="M326.499 52.3256C333.576 40.868 342.143 30.1367 352.013 20.2928C357.116 15.2095 363.485 11.861 370.301 10.5296C403.599 3.99396 438.275 0.322749 473.882 0H486.248C521.408 0.322749 555.563 3.87302 588.489 10.2473C595.156 11.5383 601.413 14.7253 606.479 19.6069C616.758 29.4104 625.772 40.2226 633.259 51.8415C636.238 56.4407 642.607 56.36 645.475 51.6801C649.2 45.6286 653.371 39.8191 657.915 34.2517C660.113 31.5486 663.614 30.4997 666.78 31.589C676.241 34.9375 685.515 38.4878 694.566 42.3608C740.974 61.887 783.1 87.5456 819.452 118.045C848.988 142.857 874.576 170.895 895.583 201.476C900.574 208.697 911.189 204.824 911.189 195.787V61.4029C911.189 27.474 936.554 0 967.878 0H1223.31C1254.64 0 1280 27.474 1280 61.4029V1268.6C1280 1302.53 1254.64 1330 1223.31 1330H56.6887C25.3647 1330 0 1302.53 0 1268.6V403.194C0 363.254 6.96505 324.725 19.815 288.336C24.0238 276.434 28.8286 264.775 34.3038 253.317C78.7384 160.083 163.473 84.0357 270.37 40.384C277.558 37.4389 284.933 34.6148 292.382 31.9522C295.734 30.7419 299.422 32.0328 301.582 35.0586L314.283 52.8904C317.411 57.2878 323.594 57.0055 326.462 52.366L326.499 52.3256Z" fill="white"/>
</svg>
