<svg width="173" height="173" viewBox="0 0 173 173" fill="none" xmlns="http://www.w3.org/2000/svg">
<path d="M97.3006 18.7544C95.1073 18.7544 93.2788 20.317 92.8619 22.3943C92.1255 21.9034 91.2521 21.6397 90.3571 21.6397C89.1563 21.6397 88.0028 22.1191 87.1532 22.9714L82.8782 27.2549C82.0286 28.1072 81.5506 29.2642 81.5506 30.4687C81.5506 31.3687 81.818 32.2425 82.3074 32.9811C81.0023 33.2448 79.8994 34.0667 79.2627 35.1917L42.7135 36.9407C41.277 37.0088 39.9575 37.7559 39.1599 38.9559L31.1013 51.0786C30.1746 52.4741 30.0871 54.2666 30.8756 55.7439C31.6641 57.2212 33.2018 58.1454 34.8717 58.1454H36.3808V59.659C36.3808 61.125 37.0703 62.4272 38.1421 63.259C35.9986 63.6204 34.3672 65.49 34.3672 67.7423V72.5852C29.2828 76.8829 26.3086 83.2091 26.3086 89.9591C26.3086 103.043 36.8018 114.524 48.763 114.524C57.0127 114.524 71.0994 112.728 71.6953 112.651C73.9566 112.365 75.6516 110.434 75.6516 108.145V106.103C77.1221 106.453 78.6402 106.632 80.1832 106.632C81.2957 106.632 82.4077 106.534 83.5066 106.343C85.9968 108.727 89.2163 110.232 92.6716 110.591C95.3588 115.53 100.579 118.754 106.364 118.754C109.858 118.754 113.162 117.614 115.874 115.51L143.094 118.723C143.273 118.744 143.455 118.754 143.63 118.754C144.792 118.754 145.879 118.308 146.697 117.551C148.577 118.338 150.609 118.754 152.689 118.754C161.294 118.754 168.297 111.73 168.297 103.098C168.297 102.673 168.273 102.258 168.239 101.842C168.233 101.74 168.224 101.636 168.213 101.531C168.188 101.281 168.152 101.033 168.111 100.786L166.934 92.3473C167.906 92.0904 168.776 91.5098 169.394 90.6871C170.251 89.5485 170.525 88.0737 170.133 86.701L166.106 72.5541C165.597 70.7655 164.062 69.4871 162.252 69.2871V67.7423C162.252 66.4082 161.68 65.205 160.765 64.3732L161.65 58.1454H163.761C165.331 58.1454 166.791 57.3311 167.615 55.9925C168.44 54.6516 168.517 52.976 167.815 51.5669L161.774 39.4442C161.042 37.9737 159.575 37.0179 157.937 36.9407L121.383 35.1917C120.747 34.0667 119.644 33.2425 118.339 32.9811C119.508 31.2152 119.313 28.8117 117.764 27.2549L113.489 22.9714C112.639 22.1191 111.486 21.6397 110.285 21.6397C109.387 21.6397 108.521 21.9057 107.784 22.3943C107.367 20.317 105.534 18.7544 103.341 18.7544H97.3006ZM97.3006 23.2998H103.341V27.7033C104.721 28.0305 106.009 28.5763 107.182 29.3013L110.289 26.1851L114.564 30.4731L111.457 33.5893C112.182 34.7643 112.726 36.0604 113.05 37.4422H117.44V39.5596L157.72 41.4817L163.761 53.6044H157.72L155.707 67.7468H157.72V73.8059H161.752L165.779 87.9527H161.747L163.619 101.398C163.653 101.616 163.692 101.83 163.712 102.051L163.717 102.095L163.712 102.091C163.744 102.427 163.765 102.757 163.765 103.103C163.765 109.239 158.804 114.213 152.689 114.213C149.374 114.213 146.408 112.749 144.378 110.436L143.621 114.209L114.374 110.755C112.357 112.88 109.518 114.209 106.364 114.209C101.261 114.209 96.9722 110.739 95.6897 106.028C95.2298 106.087 94.7651 106.126 94.2824 106.126C90.4646 106.126 87.1025 104.195 85.1086 101.247C83.5634 101.784 81.9076 102.086 80.1788 102.086C76.771 102.086 73.6397 100.941 71.1156 99.0367V108.145C71.1156 108.145 56.8157 109.979 48.7586 109.979C38.7483 109.979 30.8358 100.007 30.8358 89.9636C30.8358 83.6613 34.0365 78.1104 38.8944 74.849V67.7423H42.9215L44.1827 59.659H40.9124V53.5999H34.8673L42.9259 41.4772L83.1969 39.5552V37.4378H87.5913C87.9175 36.0537 88.4004 34.6576 89.1844 33.5848L86.0778 30.4687L90.3527 26.1851L93.4593 29.3057C94.6307 28.5784 95.8686 28.0145 97.3006 27.7077V23.2998ZM100.912 31.9291V33.4827C100.912 33.8714 100.598 34.1841 100.212 34.1841C99.825 34.1841 99.5088 33.8714 99.5088 33.4827V31.9335C97.9636 32.0858 96.5681 32.6905 95.4375 33.6337L96.5217 34.7212C96.7981 34.9985 96.7981 35.4449 96.5217 35.7199C96.3812 35.8586 96.2029 35.9241 96.0216 35.9241C95.8449 35.9241 95.6642 35.8586 95.526 35.7199L94.4418 34.6324C93.506 35.7665 92.9074 37.1685 92.7601 38.7162H94.2869C94.6743 38.7162 94.9861 39.0334 94.9861 39.422C94.9861 39.8106 94.6743 40.1278 94.2869 40.1278H92.7557C93.0865 43.7346 95.9131 46.5804 99.5044 46.9327L99.5088 45.3613C99.5088 44.9726 99.825 44.6555 100.212 44.6555C100.6 44.6555 100.912 44.9726 100.912 45.3613V46.9415C102.471 46.8006 103.883 46.1958 105.023 45.2503L103.899 44.1228C103.622 43.8456 103.622 43.3991 103.899 43.1241C104.175 42.8468 104.62 42.8468 104.895 43.1241L106.019 44.256C106.966 43.1128 107.575 41.6937 107.718 40.1278H106.129C105.742 40.1278 105.43 39.8151 105.43 39.4264C105.43 39.0378 105.742 38.7207 106.129 38.7207H107.718C107.568 37.157 106.957 35.7422 106.005 34.6013L104.895 35.7199C104.756 35.8586 104.576 35.9286 104.394 35.9286C104.213 35.9286 104.037 35.8586 103.899 35.7199C103.622 35.4427 103.622 34.9962 103.899 34.7212L105.005 33.607C103.868 32.6684 102.464 32.07 100.912 31.9291ZM100.212 35.791C100.6 35.791 100.912 36.1081 100.912 36.4968V38.8849C101.036 39.0372 101.12 39.224 101.12 39.4353C101.12 39.924 100.728 40.3187 100.239 40.3187C100.234 40.3187 100.23 40.3187 100.226 40.3187L99.2964 41.3352C99.8493 41.5852 100.124 42.1672 100.031 42.6535C99.9041 43.3172 98.8938 43.6606 98.1325 43.4969C97.3735 43.3333 96.2966 43.8148 95.6101 44.2693C96.1471 43.5443 96.2786 42.2076 96.265 41.7258C96.2492 41.244 95.8532 39.9964 97.1855 39.7327C97.8063 39.61 98.1501 39.9239 98.3449 40.292L99.4203 39.1202C99.4407 39.0633 99.4771 39.0192 99.5088 38.9692V36.4968C99.5088 36.1081 99.825 35.791 100.212 35.791ZM146.595 47.6296L145.989 50.8034L148.617 51.3094L144.86 71.724L143.121 71.4177L142.563 74.6005L150.109 75.9366L150.666 72.7539L148.631 72.3943L152.981 48.8547L146.595 47.6296ZM57.0252 48.2466L47.8204 49.1477L48.1036 52.5745L51.7103 52.2771L48.5461 71.9771L45.9396 72.2967L46.391 76.0076L46.4131 76.0032V76.0076L51.728 75.3817L53.1353 66.3529L58.8573 65.8691L60.6584 70.197L56.8083 70.4367L57.096 74.1965L67.6107 73.2244L67.3496 69.7753L65.5927 69.8863L57.0252 48.2466ZM92.1804 51.5802C90.5875 51.5802 89.2906 52.8767 89.2906 54.4744C89.2861 56.0744 90.583 57.3686 92.1804 57.3686C93.7732 57.3686 95.0657 56.0721 95.0657 54.4744C95.0657 52.8767 93.7732 51.5802 92.1804 51.5802ZM79.6256 53.5245C75.8553 53.5245 74.0231 56.2766 74.0231 56.2766L73.8018 53.6621L67.4823 54.5277L67.8408 57.3641L70.3456 56.6539L72.1113 69.0962L70.0092 69.3892L70.3588 71.906L76.2357 70.9605L74.7532 61.0529C74.7532 61.0529 74.4432 57.6748 77.9484 57.2043C79.5435 57.0861 80.9468 58.2523 81.1258 59.8455L82.3383 70.5877L87.9896 69.9573L87.6577 66.7347L85.861 66.8723L84.8077 58.1365C84.4928 55.5024 82.2675 53.5245 79.6256 53.5245ZM132.54 54.2524C131.931 54.2783 131.337 54.3745 130.765 54.5188C129.601 54.8233 128.531 55.4166 127.65 56.1257L129.27 58.4161C129.97 57.9957 130.697 57.7483 131.434 57.6438C132.184 57.5347 132.944 57.5787 133.562 57.7991C134.908 58.19 135.794 59.2793 136.209 60.427C136.315 60.7224 136.379 61.0517 136.381 61.3858C136.383 61.504 136.37 61.6745 136.355 61.8563C135.208 60.9313 133.686 60.356 132.004 60.356C128.458 60.356 125.583 62.8576 125.583 65.9712C125.583 69.0826 128.461 71.6086 132.004 71.6086C133.092 71.6086 134.101 71.3499 135 70.9295L134.863 72.4786L140.616 72.9936L140.904 69.7709L139.182 69.6155C139.291 68.3951 139.399 67.1761 139.523 65.9579L139.82 63.0459C139.865 62.5732 139.925 62.1058 139.957 61.4035C139.955 60.7672 139.914 60.1201 139.767 59.4815C139.214 56.8269 136.843 54.8943 134.407 54.4034C133.775 54.2693 133.149 54.2266 132.54 54.2524ZM98.9247 54.3723V56.7915H100.876V69.3625H98.6326V72.6784H105.089V70.0949L105.359 61.0529C105.393 59.896 106.341 58.9799 107.497 58.9799C108.707 58.9799 109.67 59.988 109.63 61.1994L109.174 73.8947H116.131V71.6486L113.555 71.6619L113.847 61.8208C113.886 60.5526 114.926 59.5436 116.193 59.5436C117.527 59.5436 118.593 60.6574 118.529 61.9984L118.002 73.6772H123.933V70.4323H121.915L122.184 61.0351C122.264 58.3169 120.164 56.0313 117.454 55.8904C114.352 55.8904 113.166 57.7725 113.166 57.7725C113.166 57.7725 112.238 55.2956 109.346 55.2956C106.455 55.2956 105.527 57.0445 105.527 57.0445L105.558 54.4788L98.9247 54.3723ZM55.0293 55.34L57.9678 62.7308L53.8168 63.0149L55.0293 55.34ZM95.0657 59.1752L87.9896 59.3039V62.3402H91.3263V71.7773H88.702V75.1242H97.4023V71.7773H95.0657V62.3402V61.4612V59.1752ZM132.73 63.4011C133.979 63.4011 135.227 63.9906 135.77 64.8792L135.762 66.0822C135.682 66.6413 135.595 67.201 135.509 67.7601C134.907 68.4669 133.813 68.9586 132.73 68.9586C130.958 68.9586 129.69 67.7029 129.69 66.1665C129.69 64.6301 130.958 63.4011 132.73 63.4011ZM117.082 75.9366C115.489 75.9366 114.197 77.2375 114.197 78.8352C114.192 80.4329 115.485 81.7294 117.082 81.7294C118.675 81.7294 119.972 80.4329 119.972 78.8352C119.972 77.2375 118.675 75.9366 117.082 75.9366ZM54.8302 77.4192L53.8035 78.995C53.1804 78.6927 52.534 78.4288 51.8475 78.2492C50.8415 77.9879 49.8165 77.8453 48.7674 77.8453C43.2479 77.8453 38.0903 81.8027 36.5224 87.4822C34.2452 95.7049 38.4982 101.378 44.9217 103.178C45.9278 103.46 46.9527 103.6 48.0018 103.6C50.3378 103.6 52.5704 102.895 54.485 101.642L52.9671 97.8071C50.9732 99.2139 48.4651 99.7426 46.0679 99.0767C41.8785 97.9062 39.5196 93.2192 40.7884 88.5919C42.0777 83.9647 46.5295 81.1781 50.719 82.3508C50.9818 82.4326 51.22 82.5104 51.4625 82.6127C52.7721 83.1172 53.8598 84.0032 54.6664 85.0941L57.065 81.3964L58.2112 79.6209L54.8302 77.4192ZM80.0416 79.4611C75.3899 79.4611 71.6024 83.3177 71.6024 88.0859C71.6024 92.8336 75.3876 96.693 80.0416 96.693C84.6955 96.693 88.4631 92.8359 88.4631 88.0859C88.4631 83.32 84.6933 79.4611 80.0416 79.4611ZM155.605 79.8694L150.025 81.2189L150.604 83.7224C149.177 83.1224 147.565 82.9305 145.936 83.2919C141.728 84.201 139.07 88.3802 139.997 92.5825C140.903 96.803 145.07 99.473 149.259 98.5662C151.004 98.1798 152.46 97.2198 153.529 95.9517L154.848 101.367L155.003 101.997L155.078 102.393C155.101 102.638 155.106 102.891 155.065 103.134C154.988 103.622 154.763 104.093 154.437 104.474C153.802 105.249 152.644 105.581 151.821 105.318C151.386 105.186 150.98 104.911 150.697 104.541C150.124 103.707 150.205 103.179 150.533 102.952C150.898 102.702 151.233 102.906 151.419 103.169L153.583 101.678C152.848 100.355 151.419 99.5349 149.971 99.8712C148.56 100.114 147.194 101.208 146.843 102.801C146.537 104.453 147.031 105.579 147.675 106.654C148.357 107.718 149.415 108.506 150.604 108.936C153.072 109.79 155.746 108.883 157.357 107.058C158.164 106.146 158.724 105.009 158.933 103.795C159.046 103.198 159.047 102.576 158.99 101.962C158.959 101.671 158.892 101.329 158.844 101.083L158.694 100.453L156.371 90.3586C155.824 87.9336 155.236 85.5235 154.645 83.1099L156.264 82.7148L155.605 79.8694ZM100.974 82.0001L98.1547 82.0135L98.1591 83.4206C97.6448 83.1615 97.1098 82.9549 96.5615 82.8435C95.6348 82.6549 94.6112 82.6645 93.6142 83.0122C92.6105 83.3418 91.6718 84.0851 91.0918 84.992C90.5162 85.9261 90.2317 86.8147 90.2022 87.9261C90.1637 89.0352 90.6245 90.1895 91.2068 90.9668C92.41 92.5372 93.7547 93.2758 94.84 94.0918C95.9526 94.8531 96.8085 95.6627 96.9377 96.2491C97.0147 96.5377 97.0053 96.9272 96.858 97.3499C96.7153 97.7386 96.5315 97.9615 96.3004 98.1001C95.8677 98.3956 94.8392 98.2821 94.2161 97.7139C93.5839 97.1548 93.3843 96.4649 93.6585 95.5877L90.6492 94.5578C90.3433 95.4601 90.2158 96.54 90.4855 97.5719C90.7302 98.6105 91.3419 99.5162 92.0919 100.178C93.5714 101.466 95.813 102.092 97.9157 100.999C98.9353 100.44 99.6446 99.4583 99.9868 98.5174C100.322 97.6128 100.482 96.5323 100.23 95.4323C99.9696 94.3391 99.3549 93.4629 98.7477 92.8311C98.1314 92.1788 97.5026 91.6941 96.9067 91.2464C95.7308 90.3759 94.5842 89.6212 94.0789 88.8893C93.8297 88.528 93.7401 88.2821 93.7514 87.9616C93.7559 87.6548 93.8802 87.1357 94.0479 86.8607C94.3493 86.288 95.0497 85.9843 96.0172 86.0706C96.9507 86.1661 97.8912 86.6587 98.1812 87.3268C98.2084 87.3973 98.1768 88.4366 98.1768 88.4366L100.996 88.4232L100.974 82.0001ZM80.0416 83.0743C82.5385 83.0743 84.5555 85.3154 84.5555 88.0859C84.5555 90.8541 82.5362 93.0974 80.0416 93.0974C77.5447 93.0974 75.51 90.8563 75.51 88.0859C75.51 85.32 77.5447 83.0743 80.0416 83.0743ZM119.972 83.5404L112.896 83.6647V86.701H116.232V96.1337H113.613V99.4806H122.313V96.1337H119.972V86.701V85.822V83.5404ZM62.3799 85.8664L55.8834 86.1416L56.0029 88.9648L58.4634 88.8627L58.8617 99.9422L57.1181 99.9866L57.2332 102.81L66.3539 102.282L66.2521 99.7514L62.8888 99.8357L62.5613 90.7803C63.0757 90.419 63.8058 90.0505 64.5218 89.7505C65.0134 89.5482 65.112 89.5267 65.4201 89.5108C65.6784 89.5108 65.9373 89.5327 66.1503 89.6395C66.5944 89.8236 66.8968 90.2036 66.9557 90.5672C67.001 90.7468 66.9838 90.9289 66.9203 91.1221C66.9045 91.2176 66.8373 91.3216 66.792 91.4284L66.4689 92.041L69.8455 93.71L70.1597 92.9998C70.2979 92.6498 70.4303 92.3054 70.496 91.9122C70.6433 91.16 70.6236 90.3209 70.3721 89.5641C69.9008 88.0209 68.646 86.8821 67.2389 86.4435C66.5365 86.2003 65.7886 86.1664 65.0794 86.2482C64.4064 86.3027 63.575 86.6539 63.1853 86.8607C62.9293 86.9926 62.6778 87.1239 62.4286 87.2603L62.3799 85.8664ZM148.6 86.1061C149.384 86.1061 150.127 86.3068 150.772 86.6477H150.795L152.366 92.9953C151.559 94.1681 150.172 94.9352 148.6 94.9352C146.062 94.9352 144.028 92.955 144.028 90.5095C144.028 88.0845 146.064 86.1061 148.6 86.1061ZM123.185 88.4321L123.008 90.8957L125.579 91.091L124.853 103.635L122.738 103.511L122.587 106.041L128.535 106.281L129.035 96.2757C129.035 96.2757 129.397 92.901 132.925 93.1374C134.513 93.3374 135.656 94.7579 135.518 96.3556L134.584 107.124L140.249 107.63L140.554 104.408L138.762 104.186L139.452 95.4101C139.661 92.7669 137.869 90.3865 135.279 89.8615C131.586 89.1115 129.252 91.4462 129.252 91.4462L129.407 88.8361L123.185 88.4321ZM112.32 89.2223L109.501 89.2356L109.506 90.6427C108.991 90.3836 108.457 90.177 107.908 90.0657C106.981 89.877 105.958 89.8866 104.961 90.2343C103.957 90.5639 103.018 91.3028 102.438 92.2096C101.863 93.1437 101.578 94.0368 101.549 95.1482C101.51 96.2573 101.971 97.4116 102.553 98.1889C103.757 99.7593 105.101 100.498 106.187 101.314C107.299 102.075 108.155 102.88 108.284 103.467C108.361 103.755 108.352 104.149 108.205 104.572C108.062 104.961 107.878 105.184 107.647 105.322C107.214 105.618 106.186 105.504 105.563 104.936C104.931 104.377 104.731 103.687 105.005 102.81L101.996 101.776C101.69 102.678 101.563 103.753 101.832 104.785C102.077 105.824 102.684 106.734 103.434 107.395C104.914 108.684 107.155 109.31 109.258 108.216C110.278 107.657 110.987 106.672 111.329 105.731C111.664 104.826 111.824 103.746 111.572 102.646C111.314 101.559 110.702 100.681 110.094 100.049C109.478 99.3965 108.849 98.9163 108.253 98.4685C107.077 97.5981 105.926 96.8388 105.421 96.107C105.172 95.7457 105.087 95.5042 105.098 95.1837C105.103 94.8769 105.227 94.3534 105.395 94.0784C105.696 93.5057 106.396 93.2064 107.364 93.2927C108.297 93.3882 109.233 93.8808 109.523 94.549C109.551 94.6194 109.519 95.6587 109.519 95.6587L112.338 95.6454L112.32 89.2223Z" fill="white"/>
</svg>
