<svg width="265" height="66" viewBox="0 0 265 66" fill="none" xmlns="http://www.w3.org/2000/svg">
<rect width="66" height="66" fill="#333333"/>
<path d="M29.7383 15.1497L22.8227 26.5603H19.0728L12.1572 15.1497H16.4953L20.9478 22.4438L25.4003 15.1497H29.7383Z" fill="white"/>
<path d="M51.5356 28.0461L38.2402 22.822V19.139L51.5356 13.8496V17.846L42.5501 21.0458L51.5356 24.1803V28.0461Z" fill="white"/>
<path d="M14.2148 46.945V42.8303H27.6812V46.945H14.2148Z" fill="white"/>
<path d="M36.0977 44.9332V44.7909C36.0977 42.9278 36.8976 41.4183 38.4974 40.2625C40.0973 39.1067 42.2319 38.5288 44.9012 38.5288C47.5879 38.5288 49.7225 39.1067 51.305 40.2625C52.8875 41.4183 53.6787 42.9278 53.6787 44.7909V44.9332C53.6787 46.8739 52.8875 48.4136 51.305 49.5521C49.7225 50.682 47.5879 51.247 44.9012 51.247C42.2232 51.247 40.0843 50.682 38.4844 49.5521C36.8932 48.4136 36.0977 46.8739 36.0977 44.9332ZM40.6233 44.8297V45.0238C40.6233 45.8346 40.9842 46.4728 41.7059 46.9386C42.4275 47.4044 43.4883 47.6373 44.8882 47.6373C46.3054 47.6373 47.3662 47.4044 48.0705 46.9386C48.7835 46.4728 49.14 45.8302 49.14 45.0108V44.8297C49.14 44.0103 48.7835 43.3763 48.0705 42.9278C47.3662 42.4793 46.3054 42.255 44.8882 42.255C43.4883 42.255 42.4275 42.4793 41.7059 42.9278C40.9842 43.3763 40.6233 44.0103 40.6233 44.8297Z" fill="white"/>
<path d="M72.9442 28.2688C73.0849 28.3071 73.2214 28.3326 73.3535 28.3453C73.4857 28.3581 73.6584 28.3645 73.8716 28.3645C74.1871 28.3645 74.445 28.2943 74.6454 28.154C74.8501 28.0094 75.108 27.7203 75.4193 27.2866L75.2978 27.5736L71 21.0743H73.4111L76.2123 25.5071C76.289 25.6304 76.3423 25.7197 76.3722 25.7749C76.402 25.8302 76.4447 25.911 76.5001 26.0173H76.5385C76.5896 25.911 76.6323 25.8302 76.6664 25.7749C76.7005 25.7154 76.7538 25.624 76.8263 25.5007L79.4292 21.0743H81.8723L77.7088 27.8287C77.1716 28.6876 76.6408 29.3552 76.1164 29.8314C75.5962 30.3034 74.8948 30.5394 74.0123 30.5394C73.765 30.5394 73.5539 30.5245 73.3791 30.4948C73.2086 30.465 73.0636 30.4289 72.9442 30.3863V28.2688Z" fill="white"/>
<path d="M82.8444 30.3608V21.0743H88.3829C89.5682 21.0743 90.4529 21.3698 91.037 21.9608C91.6211 22.5476 91.9132 23.3874 91.9132 24.4802C91.9132 25.5177 91.6232 26.3447 91.0434 26.9613C90.4678 27.5778 89.5703 27.884 88.3509 27.8797H85.0636V30.3608H82.8444ZM85.0636 26.0939H87.8584C88.5364 26.0939 89.0118 25.9557 89.2846 25.6793C89.5618 25.3986 89.7003 25.0096 89.7003 24.5121C89.7003 24.0061 89.5618 23.6213 89.2846 23.3576C89.0118 23.094 88.5364 22.9622 87.8584 22.9622H85.0636V26.0939Z" fill="white"/>
<path d="M91.9835 30.3608L96.5307 21.0424H98.7563L103.297 30.3608H100.803L97.9313 24.0592C97.8801 23.9529 97.8332 23.853 97.7906 23.7595C97.748 23.6659 97.7117 23.583 97.6819 23.5107H97.6563C97.6264 23.583 97.5902 23.668 97.5476 23.7658C97.5092 23.8636 97.4644 23.9636 97.4133 24.0656L94.5481 30.3608H91.9835ZM94.19 28.4027L94.919 26.6679H100.374L101.084 28.4027H94.19Z" fill="white"/>
<path d="M105.433 21.0743H113.459V30.3608H111.24V23.0323H107.288L107.051 26.6934C106.979 27.8287 106.755 28.7493 106.38 29.4551C106.009 30.1567 105.305 30.5075 104.269 30.5075C104.03 30.5075 103.83 30.4969 103.668 30.4756C103.506 30.4544 103.365 30.4225 103.246 30.38V28.1412C103.344 28.171 103.438 28.1901 103.527 28.1986C103.621 28.2071 103.723 28.2114 103.834 28.2114C104.278 28.2114 104.589 28.0775 104.768 27.8096C104.951 27.5374 105.067 27.0421 105.113 26.3235L105.433 21.0743Z" fill="white"/>
<path d="M115.755 21.0743H117.975V24.0656H121.045C122.281 24.0656 123.181 24.3569 123.743 24.9394C124.306 25.5177 124.588 26.2724 124.588 27.2036C124.588 28.1901 124.302 28.964 123.731 29.5253C123.159 30.0823 122.275 30.3608 121.076 30.3608H115.755V21.0743ZM117.975 25.9535V28.492H120.642C121.273 28.492 121.718 28.3879 121.978 28.1795C122.243 27.9712 122.375 27.6522 122.375 27.2228C122.375 26.8401 122.243 26.5339 121.978 26.3043C121.718 26.0705 121.273 25.9535 120.642 25.9535H117.975Z" fill="white"/>
<path d="M125.317 25.8068V25.6219C125.317 24.0443 125.85 22.8601 126.916 22.0693C127.981 21.2784 129.371 20.8829 131.085 20.8829C132.744 20.8829 134.004 21.1869 134.865 21.795C135.731 22.3988 136.257 23.296 136.445 24.4866L136.47 24.7034H134.251L134.219 24.5185C134.091 23.9614 133.789 23.5235 133.311 23.2046C132.838 22.8857 132.111 22.7262 131.13 22.7262C130.043 22.7262 129.192 22.9728 128.578 23.4661C127.969 23.9593 127.664 24.6588 127.664 25.5645V25.8515C127.664 26.8167 127.975 27.5374 128.598 28.0137C129.224 28.4899 130.069 28.728 131.13 28.728C132.158 28.728 132.906 28.5749 133.375 28.2688C133.848 27.9626 134.134 27.5247 134.232 26.9549L134.258 26.7572H136.477L136.451 26.9868C136.328 28.1434 135.837 29.0278 134.98 29.6401C134.123 30.2481 132.831 30.5522 131.105 30.5522C129.348 30.5522 127.943 30.1525 126.89 29.3531C125.841 28.5494 125.317 27.3674 125.317 25.8068Z" fill="white"/>
<path d="M145.053 30.3608L140.519 25.9599L142.201 24.7353L147.944 30.3608H145.053ZM138.945 24.5886H140.966L144.759 21.0743H147.752L141.612 26.5913H138.945V24.5886ZM137.833 30.3608V21.0743H140.052V30.3608H137.833Z" fill="white"/>
<path d="M158.202 30.3608H155.996V24.8055C155.996 24.6737 155.998 24.561 156.002 24.4674C156.011 24.3739 156.015 24.2867 156.015 24.2059H155.97C155.932 24.2825 155.887 24.3654 155.836 24.4547C155.785 24.5397 155.702 24.6396 155.586 24.7544L151.174 30.3608H148.641V21.0743H150.847V26.5339C150.847 26.6488 150.845 26.7508 150.841 26.8401C150.841 26.9294 150.841 27.0314 150.841 27.1462H150.886C150.92 27.0527 150.962 26.974 151.014 26.9103C151.065 26.8422 151.146 26.7487 151.257 26.6296L155.67 21.0743H158.202V30.3608Z" fill="white"/>
<path d="M170.047 30.3608H167.84V24.8055C167.84 24.6737 167.842 24.561 167.847 24.4674C167.855 24.3739 167.859 24.2867 167.859 24.2059H167.815C167.776 24.2825 167.731 24.3654 167.68 24.4547C167.629 24.5397 167.546 24.6396 167.431 24.7544L163.018 30.3608H160.485V21.0743H162.692V26.5339C162.692 26.6488 162.69 26.7508 162.685 26.8401C162.685 26.9294 162.685 27.0314 162.685 27.1462H162.73C162.764 27.0527 162.807 26.974 162.858 26.9103C162.909 26.8422 162.99 26.7487 163.101 26.6296L167.514 21.0743H170.047V30.3608ZM165.282 19.0843C165.597 19.0843 165.868 18.995 166.094 18.8164C166.324 18.6378 166.499 18.3657 166.619 18L168.006 18.5995C167.759 19.2544 167.399 19.72 166.926 19.9964C166.457 20.2685 165.909 20.4046 165.282 20.4046C164.651 20.4046 164.101 20.2664 163.632 19.99C163.163 19.7136 162.796 19.2522 162.532 18.6059L163.945 18C164.073 18.3699 164.248 18.6442 164.47 18.8228C164.691 18.9971 164.962 19.0843 165.282 19.0843Z" fill="white"/>
<path d="M183.605 30.3608L179.071 25.9599L180.753 24.7353L186.496 30.3608H183.605ZM177.497 24.5886H179.518L183.311 21.0743H186.304L180.164 26.5913H177.497V24.5886ZM176.384 30.3608V21.0743H178.604V30.3608H176.384Z" fill="white"/>
<path d="M188.382 21.0743H196.409V30.3608H194.189V23.0323H190.237L190 26.6934C189.928 27.8287 189.704 28.7493 189.329 29.4551C188.958 30.1567 188.254 30.5075 187.218 30.5075C186.98 30.5075 186.779 30.4969 186.617 30.4756C186.455 30.4544 186.314 30.4225 186.195 30.38V28.1412C186.293 28.171 186.387 28.1901 186.477 28.1986C186.57 28.2071 186.673 28.2114 186.783 28.2114C187.227 28.2114 187.538 28.0775 187.717 27.8096C187.901 27.5374 188.016 27.0421 188.063 26.3235L188.382 21.0743Z" fill="white"/>
<path d="M199.421 28.2688C199.562 28.3071 199.698 28.3326 199.83 28.3453C199.962 28.3581 200.135 28.3645 200.348 28.3645C200.664 28.3645 200.922 28.2943 201.122 28.154C201.327 28.0094 201.585 27.7203 201.896 27.2866L201.774 27.5736L197.477 21.0743H199.888L202.689 25.5071C202.766 25.6304 202.819 25.7197 202.849 25.7749C202.879 25.8302 202.921 25.911 202.977 26.0173H203.015C203.066 25.911 203.109 25.8302 203.143 25.7749C203.177 25.7154 203.23 25.624 203.303 25.5007L205.906 21.0743H208.349L204.186 27.8287C203.648 28.6876 203.117 29.3552 202.593 29.8314C202.073 30.3034 201.372 30.5394 200.489 30.5394C200.242 30.5394 200.031 30.5245 199.856 30.4948C199.685 30.465 199.54 30.4289 199.421 30.3863V28.2688Z" fill="white"/>
<path d="M209.321 30.3608V21.0743H217.482V23.0132H211.54V24.5567H214.668C215.84 24.5567 216.71 24.8097 217.277 25.3157C217.844 25.8217 218.128 26.5233 218.128 27.4205C218.128 28.356 217.84 29.0809 217.264 29.5955C216.693 30.1057 215.825 30.3608 214.661 30.3608H209.321ZM211.54 26.2342V28.6196H214.214C214.84 28.6196 215.284 28.5218 215.544 28.3262C215.804 28.1306 215.934 27.833 215.934 27.4333C215.934 27.0591 215.804 26.7657 215.544 26.5531C215.284 26.3405 214.84 26.2342 214.214 26.2342H211.54Z" fill="white"/>
<path d="M72.2279 44.8087V35.5221H74.4472V38.9727H79.4548V35.5221H81.6676V44.8087H79.4548V41.0583H74.4472V44.8087H72.2279Z" fill="white"/>
<path d="M83.2217 40.1909V40.0442C83.2217 38.4964 83.776 37.325 84.8846 36.5298C85.9974 35.7304 87.3809 35.3307 89.0352 35.3307C90.6895 35.3307 92.0752 35.7304 93.1923 36.5298C94.3093 37.325 94.8679 38.4964 94.8679 40.0442V40.1909C94.8679 41.7854 94.3093 42.9866 93.1923 43.7945C92.0752 44.5982 90.6895 45 89.0352 45C87.3809 45 85.9974 44.5982 84.8846 43.7945C83.776 42.9866 83.2217 41.7854 83.2217 40.1909ZM85.5305 40.2547C85.5305 41.2326 85.8545 41.9619 86.5026 42.4424C87.1549 42.9229 88.0034 43.1674 89.048 43.1759C90.0841 43.1844 90.9283 42.9441 91.5806 42.4551C92.2372 41.9661 92.5655 41.2369 92.5655 40.2674V40.0059C92.5655 39.0705 92.2393 38.371 91.587 37.9075C90.9347 37.444 90.0883 37.208 89.048 37.1995C87.9991 37.191 87.1507 37.4228 86.5026 37.8948C85.8545 38.3667 85.5305 39.0705 85.5305 40.0059V40.2547Z" fill="white"/>
<path d="M96.4284 44.8087V35.5221H101.66C102.666 35.5221 103.436 35.7241 103.969 36.128C104.502 36.532 104.768 37.1188 104.768 37.8884C104.768 38.4199 104.634 38.8579 104.365 39.2023C104.097 39.5424 103.762 39.7806 103.361 39.9166V39.9421C103.903 40.0357 104.344 40.2653 104.685 40.631C105.03 40.9924 105.203 41.4984 105.203 42.149C105.203 43.0164 104.885 43.6776 104.25 44.1326C103.615 44.5833 102.803 44.8087 101.813 44.8087H96.4284ZM98.59 43.0866H101.334C101.82 43.0866 102.212 42.993 102.51 42.8059C102.809 42.6188 102.958 42.3169 102.958 41.9002C102.958 41.5303 102.809 41.256 102.51 41.0774C102.212 40.8989 101.82 40.8096 101.334 40.8096H98.59V43.0866ZM98.59 39.3426H101.199C101.668 39.3426 102.027 39.2554 102.274 39.0811C102.521 38.9025 102.645 38.6474 102.645 38.3157C102.645 37.9755 102.521 37.7225 102.274 37.5567C102.027 37.3909 101.668 37.308 101.199 37.308H98.59V39.3426Z" fill="white"/>
<path d="M106.079 40.1909V40.0442C106.079 38.4964 106.633 37.325 107.742 36.5298C108.855 35.7304 110.238 35.3307 111.893 35.3307C113.547 35.3307 114.933 35.7304 116.05 36.5298C117.167 37.325 117.725 38.4964 117.725 40.0442V40.1909C117.725 41.7854 117.167 42.9866 116.05 43.7945C114.933 44.5982 113.547 45 111.893 45C110.238 45 108.855 44.5982 107.742 43.7945C106.633 42.9866 106.079 41.7854 106.079 40.1909ZM108.388 40.2547C108.388 41.2326 108.712 41.9619 109.36 42.4424C110.012 42.9229 110.861 43.1674 111.905 43.1759C112.941 43.1844 113.786 42.9441 114.438 42.4551C115.095 41.9661 115.423 41.2369 115.423 40.2674V40.0059C115.423 39.0705 115.097 38.371 114.444 37.9075C113.792 37.444 112.946 37.208 111.905 37.1995C110.857 37.191 110.008 37.4228 109.36 37.8948C108.712 38.3667 108.388 39.0705 108.388 40.0059V40.2547Z" fill="white"/>
<path d="M119.286 44.8087V35.5221H126.724V37.5312H121.499V44.8087H119.286Z" fill="white"/>
<path d="M127.325 40.1909V40.0442C127.325 38.4964 127.879 37.325 128.988 36.5298C130.1 35.7304 131.484 35.3307 133.138 35.3307C134.793 35.3307 136.178 35.7304 137.295 36.5298C138.412 37.325 138.971 38.4964 138.971 40.0442V40.1909C138.971 41.7854 138.412 42.9866 137.295 43.7945C136.178 44.5982 134.793 45 133.138 45C131.484 45 130.1 44.5982 128.988 43.7945C127.879 42.9866 127.325 41.7854 127.325 40.1909ZM129.634 40.2547C129.634 41.2326 129.958 41.9619 130.606 42.4424C131.258 42.9229 132.107 43.1674 133.151 43.1759C134.187 43.1844 135.031 42.9441 135.684 42.4551C136.34 41.9661 136.669 41.2369 136.669 40.2674V40.0059C136.669 39.0705 136.342 38.371 135.69 37.9075C135.038 37.444 134.191 37.208 133.151 37.1995C132.102 37.191 131.254 37.4228 130.606 37.8948C129.958 38.3667 129.634 39.0705 129.634 40.0059V40.2547Z" fill="white"/>
<path d="M143.864 40.1909V40.0442C143.864 38.4964 144.418 37.325 145.526 36.5298C146.639 35.7304 148.023 35.3307 149.677 35.3307C151.331 35.3307 152.717 35.7304 153.834 36.5298C154.951 37.325 155.51 38.4964 155.51 40.0442V40.1909C155.51 41.7854 154.951 42.9866 153.834 43.7945C152.717 44.5982 151.331 45 149.677 45C148.023 45 146.639 44.5982 145.526 43.7945C144.418 42.9866 143.864 41.7854 143.864 40.1909ZM146.172 40.2547C146.172 41.2326 146.496 41.9619 147.144 42.4424C147.797 42.9229 148.645 43.1674 149.69 43.1759C150.726 43.1844 151.57 42.9441 152.222 42.4551C152.879 41.9661 153.207 41.2369 153.207 40.2674V40.0059C153.207 39.0705 152.881 38.371 152.229 37.9075C151.576 37.444 150.73 37.208 149.69 37.1995C148.641 37.191 147.792 37.4228 147.144 37.8948C146.496 38.3667 146.172 39.0705 146.172 40.0059V40.2547Z" fill="white"/>
<path d="M157.07 44.8087V35.5221H165.231V37.461H159.289V39.0046H162.417C163.589 39.0046 164.459 39.2576 165.026 39.7636C165.593 40.2696 165.877 40.9711 165.877 41.8683C165.877 42.8038 165.589 43.5288 165.013 44.0433C164.442 44.5535 163.574 44.8087 162.41 44.8087H157.07ZM159.289 40.682V43.0674H161.963C162.589 43.0674 163.033 42.9696 163.293 42.774C163.553 42.5784 163.683 42.2808 163.683 41.8811C163.683 41.5069 163.553 41.2135 163.293 41.0009C163.033 40.7883 162.589 40.682 161.963 40.682H159.289Z" fill="white"/>
<path d="M167.354 44.8087V35.5221H172.893C174.078 35.5221 174.963 35.8176 175.547 36.4087C176.131 36.9954 176.423 37.8352 176.423 38.928C176.423 39.9655 176.133 40.7926 175.553 41.4091C174.977 42.0257 174.08 42.3318 172.861 42.3276H169.573V44.8087H167.354ZM169.573 40.5417H172.368C173.046 40.5417 173.521 40.4035 173.794 40.1271C174.071 39.8465 174.21 39.4574 174.21 38.9599C174.21 38.4539 174.071 38.0691 173.794 37.8055C173.521 37.5418 173.046 37.41 172.368 37.41H169.573V40.5417Z" fill="white"/>
<path d="M176.493 44.8087L181.04 35.4902H183.266L187.807 44.8087H185.313L182.441 38.5071C182.39 38.4008 182.343 38.3008 182.3 38.2073C182.258 38.1137 182.221 38.0308 182.192 37.9585H182.166C182.136 38.0308 182.1 38.1159 182.057 38.2137C182.019 38.3115 181.974 38.4114 181.923 38.5134L179.058 44.8087H176.493ZM178.7 42.8506L179.429 41.1157H184.884L185.594 42.8506H178.7Z" fill="white"/>
<path d="M192.885 43.144C193.75 43.144 194.379 43.0547 194.771 42.8761C195.164 42.6932 195.36 42.385 195.36 41.9513C195.36 41.6281 195.194 41.39 194.861 41.2369C194.528 41.0796 194.015 41.0009 193.32 41.0009H191.401V39.1831H193.3C193.885 39.1831 194.328 39.1066 194.631 38.9535C194.933 38.8005 195.085 38.5475 195.085 38.1945C195.089 37.8884 194.916 37.6439 194.567 37.461C194.217 37.2782 193.646 37.1868 192.853 37.1868C191.923 37.1868 191.23 37.3186 190.774 37.5822C190.322 37.8459 190.084 38.203 190.058 38.6538L190.039 38.8642H187.928L187.941 38.6282C188.001 37.578 188.448 36.7722 189.284 36.2109C190.12 35.6454 191.314 35.3626 192.866 35.3626C194.383 35.3626 195.511 35.588 196.249 36.0387C196.986 36.4894 197.355 37.1102 197.355 37.9011C197.351 38.4114 197.185 38.8408 196.856 39.1895C196.532 39.5339 196.11 39.7742 195.59 39.9102V39.9358C196.204 40.0378 196.701 40.2696 197.08 40.631C197.46 40.9882 197.649 41.475 197.649 42.0916C197.649 42.959 197.236 43.6563 196.409 44.1836C195.582 44.7066 194.409 44.9681 192.891 44.9681C191.288 44.9681 190.058 44.7066 189.201 44.1836C188.348 43.6563 187.898 42.8166 187.852 41.6642L187.845 41.4601H189.956L189.968 41.6323C189.99 42.1809 190.241 42.5699 190.723 42.7995C191.205 43.0292 191.925 43.144 192.885 43.144Z" fill="white"/>
<path d="M198.366 40.1909V40.0442C198.366 38.4964 198.92 37.325 200.028 36.5298C201.141 35.7304 202.525 35.3307 204.179 35.3307C205.833 35.3307 207.219 35.7304 208.336 36.5298C209.453 37.325 210.012 38.4964 210.012 40.0442V40.1909C210.012 41.7854 209.453 42.9866 208.336 43.7945C207.219 44.5982 205.833 45 204.179 45C202.525 45 201.141 44.5982 200.028 43.7945C198.92 42.9866 198.366 41.7854 198.366 40.1909ZM200.674 40.2547C200.674 41.2326 200.998 41.9619 201.647 42.4424C202.299 42.9229 203.147 43.1674 204.192 43.1759C205.228 43.1844 206.072 42.9441 206.725 42.4551C207.381 41.9661 207.709 41.2369 207.709 40.2674V40.0059C207.709 39.0705 207.383 38.371 206.731 37.9075C206.079 37.444 205.232 37.208 204.192 37.1995C203.143 37.191 202.295 37.4228 201.647 37.8948C200.998 38.3667 200.674 39.0705 200.674 40.0059V40.2547Z" fill="white"/>
<path d="M211.572 44.8087V35.5221H216.804C217.81 35.5221 218.58 35.7241 219.113 36.128C219.646 36.532 219.912 37.1188 219.912 37.8884C219.912 38.4199 219.778 38.8579 219.509 39.2023C219.24 39.5424 218.906 39.7806 218.505 39.9166V39.9421C219.046 40.0357 219.488 40.2653 219.829 40.631C220.174 40.9924 220.347 41.4984 220.347 42.149C220.347 43.0164 220.029 43.6776 219.394 44.1326C218.759 44.5833 217.946 44.8087 216.957 44.8087H211.572ZM213.734 43.0866H216.478C216.964 43.0866 217.356 42.993 217.654 42.8059C217.953 42.6188 218.102 42.3169 218.102 41.9002C218.102 41.5303 217.953 41.256 217.654 41.0774C217.356 40.8989 216.964 40.8096 216.478 40.8096H213.734V43.0866ZM213.734 39.3426H216.343C216.812 39.3426 217.17 39.2554 217.418 39.0811C217.665 38.9025 217.789 38.6474 217.789 38.3157C217.789 37.9755 217.665 37.7225 217.418 37.5567C217.17 37.3909 216.812 37.308 216.343 37.308H213.734V39.3426Z" fill="white"/>
<path d="M220.609 44.8087L225.156 35.4902H227.382L231.923 44.8087H229.428L226.557 38.5071C226.506 38.4008 226.459 38.3008 226.416 38.2073C226.374 38.1137 226.337 38.0308 226.307 37.9585H226.282C226.252 38.0308 226.216 38.1159 226.173 38.2137C226.135 38.3115 226.09 38.4114 226.039 38.5134L223.174 44.8087H220.609ZM222.816 42.8506L223.545 41.1157H229L229.71 42.8506H222.816Z" fill="white"/>
<path d="M232.869 44.8087V35.5221H235.088V38.9727H240.096V35.5221H242.309V44.8087H240.096V41.0583H235.088V44.8087H232.869Z" fill="white"/>
<path d="M254.147 44.8087H251.94V39.2533C251.94 39.1215 251.943 39.0088 251.947 38.9153C251.955 38.8217 251.96 38.7345 251.96 38.6538H251.915C251.877 38.7303 251.832 38.8132 251.781 38.9025C251.729 38.9875 251.646 39.0875 251.531 39.2023L247.118 44.8087H244.586V35.5221H246.792V40.9818C246.792 41.0966 246.79 41.1986 246.786 41.2879C246.786 41.3772 246.786 41.4793 246.786 41.5941H246.83C246.865 41.5005 246.907 41.4219 246.958 41.3581C247.01 41.2901 247.091 41.1965 247.201 41.0774L251.614 35.5221H254.147V44.8087Z" fill="white"/>
<path d="M265 44.8087H262.787V41.626H259.155L258.918 41.5112C257.993 41.4389 257.281 41.1349 256.782 40.5991C256.283 40.0591 256.034 39.3639 256.034 38.5134C256.034 37.5992 256.332 36.8721 256.929 36.3321C257.53 35.7921 258.338 35.5221 259.353 35.5221H265V44.8087ZM262.787 39.8847V37.3399H259.871C259.308 37.3399 258.901 37.4525 258.649 37.6779C258.398 37.9033 258.272 38.2158 258.272 38.6155C258.272 39.0067 258.396 39.3171 258.643 39.5467C258.894 39.7721 259.304 39.8847 259.871 39.8847H262.787ZM258.016 44.8087H255.669L258.413 40.6692H260.715L258.016 44.8087Z" fill="white"/>
</svg>
