<svg width="128" height="128" viewBox="0 0 128 128" fill="none" xmlns="http://www.w3.org/2000/svg">
<path d="M31.1835 10.1878C30.5219 10.1983 29.8903 10.466 29.4225 10.934L9.04696 31.3095C8.56931 31.7871 8.30091 32.4348 8.30078 33.1103V91.69C8.30091 92.3654 8.56931 93.0132 9.04696 93.4908L34.5164 118.96C34.8726 119.316 35.3264 119.559 35.8204 119.657C36.3143 119.755 36.8263 119.704 37.2916 119.512C37.7569 119.319 38.1546 118.993 38.4345 118.574C38.7144 118.155 38.8639 117.663 38.8641 117.159V64.7282L62.5328 88.3969C63.0104 88.8743 63.6582 89.1426 64.3335 89.1426C65.0089 89.1426 65.6567 88.8743 66.1343 88.3969L89.803 64.7282V117.159C89.8032 117.663 89.9527 118.155 90.2326 118.574C90.5125 118.993 90.9102 119.319 91.3755 119.512C91.8408 119.704 92.3527 119.755 92.8467 119.657C93.3407 119.559 93.7945 119.316 94.1507 118.96L119.62 93.4908C120.098 93.0132 120.366 92.3654 120.366 91.69V33.1103C120.366 32.4348 120.098 31.7871 119.62 31.3095L99.2446 10.934C98.7669 10.4565 98.1192 10.1883 97.4438 10.1883C96.7684 10.1883 96.1207 10.4565 95.6431 10.934L64.3335 42.2435L33.024 10.934C32.7829 10.6927 32.4957 10.5023 32.1795 10.3741C31.8633 10.2459 31.5246 10.1826 31.1835 10.1878ZM31.2233 16.3363L61.7866 46.8996V80.4476L14.4493 33.1103L31.2233 16.3363ZM97.4438 16.3363L114.218 33.1103L66.8805 80.4476V46.8996L97.4438 16.3363ZM13.3947 39.2588L33.7702 59.6343V111.011L13.3947 90.6354V39.2588ZM115.272 39.2588V90.6354L94.8969 111.011V59.6343L115.272 39.2588Z" fill="white"/>
</svg>
