<svg width="126" height="126" viewBox="0 0 126 126" fill="none" xmlns="http://www.w3.org/2000/svg">
<path d="M35.9417 10.7437C21.9313 10.7437 10.458 22.2169 10.458 36.2273V89.7666C10.458 103.777 21.9313 115.25 35.9417 115.25H89.4809C103.491 115.25 114.965 103.783 114.965 89.7768V36.2273C114.965 22.2169 103.498 10.7437 89.4911 10.7437H35.9417ZM35.9417 21.1943H89.4911C97.849 21.1943 104.514 27.8629 104.514 36.2273V89.7768C104.514 98.1347 97.8454 104.8 89.4809 104.8H35.9417C27.5772 104.8 20.9087 98.131 20.9087 89.7666V36.2273C20.9087 27.8629 27.5772 21.1943 35.9417 21.1943ZM67.6713 33.135C72.813 43.4237 76.8566 49.4847 73.3661 63.6297C67.8534 59.9563 46.9183 43.4248 42.3305 38.095C45.6381 43.9735 55.7398 57.0154 59.0474 60.323C53.1637 56.2839 34.2373 41.4016 34.2373 41.4016C34.2373 41.4016 50.4061 65.8445 63.9972 74.111C58.8555 75.7622 48.2011 82.1931 28.7262 70.2532C33.6851 77.0514 41.9491 91.0112 63.4461 89.7257C70.9758 89.36 75.5684 86.9733 79.7957 85.3169C84.023 83.6657 88.0621 83.8489 91.5527 90.0931C92.2894 84.3975 92.4712 79.0652 86.5927 72.9985C86.5927 72.9985 95.2244 51.3244 67.6713 33.135Z" fill="white"/>
</svg>
