<svg width="123" height="123" viewBox="0 0 123 123" fill="none" xmlns="http://www.w3.org/2000/svg">
<g clip-path="url(#clip0_612_107)">
<path d="M69.1995 31.1219C68.6632 31.1078 68.1233 31.2209 67.5888 31.4127C64.3435 32.7032 63.0997 34.6192 63.0997 34.6192C63.0997 34.6192 58.8981 40.7808 57.9245 49.921C57.768 51.391 57.6041 52.9019 57.4323 54.4176C56.5313 62.0612 55.5233 69.6076 55.5233 69.6076C55.5233 69.6076 53.5198 71.507 51.6681 71.5986C49.8163 71.6902 50.6315 66.2594 50.6315 66.2594C50.6315 66.2594 52.0692 58.1452 51.9738 56.7517C51.8783 55.3581 51.7596 54.593 50.0797 54.1119C48.3807 53.6117 46.5451 55.7077 46.5451 55.7077C46.5451 55.7077 41.678 62.7326 41.2581 63.8284L41.012 64.2758L40.7659 63.9775C40.7659 63.9775 44.1985 54.1788 40.915 54.0299C37.6316 53.881 35.4789 57.5272 35.4789 57.5272C35.4789 57.5272 31.7316 63.6258 31.5789 64.3131L31.3402 64.0223C31.3402 64.0223 32.8877 57.2102 32.5632 55.4616C32.2577 53.713 30.5572 54.0671 30.5572 54.0671C30.5572 54.0671 28.404 53.827 27.8504 55.1633C27.2967 56.5034 25.235 65.1557 24.9869 68.0192C24.9869 68.0192 19.6041 71.773 16.0534 71.8074C12.5217 71.8647 12.8617 69.615 12.8617 69.615C12.8617 69.615 25.8456 65.4191 22.2949 56.8859C20.7104 54.6905 18.8551 54.003 16.2398 54.0373C13.6245 54.0946 10.4576 55.5068 8.35771 60.0999C7.34594 62.2952 7.05721 64.373 6.86631 65.9536C6.86631 65.9536 4.52033 66.4018 3.27948 65.4167C2.03864 64.4317 1.37049 65.4167 1.37049 65.4167C1.37049 65.4167 -0.77087 68.0192 1.34812 68.8171C3.4671 69.6151 6.71717 69.9506 6.71717 69.9506C7.02261 71.3442 7.90253 73.5712 10.4606 75.4688C14.3168 78.3132 21.6834 75.2302 21.6834 75.2302L24.7184 73.5971C24.7184 73.5971 24.8156 76.3097 27.0301 76.6992C29.2445 77.0886 30.1578 76.8861 33.9949 67.7955C36.2475 63.149 36.4035 63.4108 36.4035 63.4108L36.6496 63.3511C36.6496 63.3511 34.9151 72.0569 35.5833 74.4546C36.2514 76.8332 39.1701 76.5724 39.1701 76.5724C39.1701 76.5724 40.7546 77.0145 42.0336 72.6277C43.3126 68.2408 45.777 63.3511 45.777 63.3511H46.0828C46.0828 63.3511 45.0078 72.2986 46.6495 75.2003C48.2912 78.102 52.548 76.1847 52.548 76.1847C52.548 76.1847 55.5275 74.7298 55.9857 74.2831C55.9857 74.2831 59.5191 77.2226 64.5016 76.6843C75.631 74.5462 79.602 71.867 79.602 71.867C79.602 71.867 81.5098 76.4058 87.4468 76.8334C94.2238 77.3374 97.909 73.3734 97.909 73.3734C97.909 73.3734 97.8535 75.8827 100.221 76.8334C102.588 77.7803 104.173 72.5904 104.173 72.5904L108.125 61.9567H108.483C108.483 61.9567 108.698 68.8921 112.592 69.9879C116.486 71.0836 121.563 67.445 121.563 67.445C121.563 67.445 122.779 66.7911 122.569 64.7829C122.356 62.7937 120.526 63.5152 120.526 63.5152C120.526 63.5152 117.549 65.7658 114.933 65.5062C112.318 65.2657 113.136 59.7568 113.136 59.7568C113.136 59.7568 113.713 54.532 112.167 54.1044C110.621 53.6577 108.729 55.4616 108.729 55.4616C108.729 55.4616 106.358 57.8089 105.232 61.0618L104.926 61.1513C104.926 61.1513 105.294 55.466 104.874 54.1641C104.568 53.515 101.745 53.5703 101.287 54.7234C100.829 55.8764 98.5763 63.8693 98.4236 67.2139C98.4236 67.2139 94.0099 70.8538 90.1537 71.4494C86.2975 72.0451 85.3812 69.7045 85.3812 69.7045C85.3812 69.7045 95.5201 67.7291 95.1574 59.5853C94.7947 51.4416 86.7151 54.4579 85.7988 55.126C84.9207 55.7751 80.5142 57.6716 79.1397 65.3496C79.1015 65.6092 79.0055 66.7441 79.0055 66.7441C79.0055 66.7441 74.9569 69.3785 72.7043 70.0848C72.7043 70.0848 79.0031 59.7552 71.3098 55.0515C69.1336 53.7877 67.2461 54.9591 66.1198 56.0358C66.471 55.5967 66.8995 55.04 67.3576 54.4176C70.2746 50.3133 74.7284 42.6684 73.1592 35.8571C72.3288 32.3379 70.8084 31.1641 69.1995 31.1219ZM68.0735 36.1628C68.3881 36.1928 68.6507 36.5653 68.8117 37.438C69.499 41.1529 64.2314 50.714 62.0781 54.4251C61.5321 55.3299 61.1758 55.8941 61.1758 55.8941C61.1872 55.5085 61.2444 55.0054 61.3398 54.4251C61.9965 50.3207 64.3077 42.3447 64.3077 42.3447C64.3077 42.3447 66.7101 36.0332 68.0735 36.1628ZM17.1421 58.34C17.3835 58.384 17.5967 58.4854 17.7685 58.6458C19.162 59.9477 18.6463 62.6092 16.031 64.3578C13.4157 66.1217 12.2354 65.7672 12.2354 65.7672C12.369 60.5623 15.4519 58.0318 17.1421 58.34ZM88.6921 58.6979C89.3651 58.7447 89.7734 59.2572 89.7734 59.2572C89.7734 59.2572 91.57 61.1555 89.5273 63.9999C87.4847 66.8443 84.4864 66.6397 84.4864 66.6397C84.4864 66.6397 83.9185 64.6878 86.0375 60.95C87.0874 59.0715 88.0192 58.6512 88.6921 58.6979ZM66.4553 59.5853C67.3402 59.6822 67.9691 60.0178 67.9691 60.0178C67.9691 60.0178 71.0605 62.3308 68.6551 68.4816C66.2498 74.6171 60.3928 72.1206 60.3928 72.1206C60.3928 72.1206 59.7258 69.927 61.6157 63.7762C62.7969 59.9295 64.9805 59.4238 66.4553 59.5853Z" fill="white"/>
</g>
<defs>
<clipPath id="clip0_612_107">
<rect width="122.176" height="122.176" fill="white" transform="translate(0.416016 0.585449)"/>
</clipPath>
</defs>
</svg>
