<svg width="176" height="81" viewBox="0 0 176 81" fill="none" xmlns="http://www.w3.org/2000/svg">
<path d="M3.59802 7.02398C3.543 6.75935 3.33028 6.60348 3.09188 6.62885C2.79846 6.65423 2.66641 6.8681 2.66641 7.15811V22.739H0V7.15811C0 5.49779 1.11865 4.20363 2.77279 4.02237C4.42692 3.84112 5.81332 4.81265 6.2131 6.42222L9.46635 19.9476C9.54704 20.2376 9.75976 20.3681 10.0018 20.3681C10.2439 20.3681 10.4566 20.2376 10.5336 19.9476L13.7869 6.42222C14.1867 4.81265 15.5731 3.83749 17.2272 4.02237C18.8813 4.20726 20 5.49779 20 7.15811V22.739H17.3336V7.15811C17.3336 6.8681 17.2015 6.65785 16.9081 6.62885C16.6697 6.60348 16.4533 6.75935 16.402 7.02398L13.1194 20.5748C12.7709 22.0502 11.4652 23 9.99815 23C8.53107 23 7.22538 22.0502 6.87695 20.5748L3.59435 7.02398H3.59802Z" fill="#FF6C36"/>
<path d="M30.7645 4C34.2417 4 37 6.77233 37 10.2015V16.7985C37 20.2277 34.2417 23 30.7645 23H30.2355C26.7875 23 24 20.2277 24 16.7985V10.2015C24 6.77233 26.7875 4 30.2355 4H30.7645ZM30.2355 6.6417C28.2725 6.6417 26.6525 8.25286 26.6525 10.2051V16.8021C26.6525 18.7544 28.2725 20.3655 30.2355 20.3655H30.7645C32.753 20.3655 34.3475 18.7544 34.3475 16.8021V10.2051C34.3475 8.25286 32.7275 6.6417 30.7645 6.6417H30.2355Z" fill="#FF6C36"/>
<path d="M40.7024 21.9965H38L44.0917 6.33192C44.6279 4.93765 46.0019 4 47.5826 4C49.6225 4 51 5.36987 51 7.39853V22H48.4519V7.47521C48.4519 6.9175 48.0698 6.53756 47.4845 6.53756C47.0499 6.53756 46.6678 6.81642 46.5171 7.22076L40.7059 22L40.7024 21.9965Z" fill="#FF6C36"/>
<path d="M61.7645 4C65.2417 4 68 6.77233 68 10.2015V16.7985C68 20.2277 65.2417 23 61.7645 23H61.2355C57.7875 23 55 20.2277 55 16.7985V10.2015C55 6.77233 57.7875 4 61.2355 4H61.7645ZM61.2318 6.6417C59.2689 6.6417 57.6489 8.25286 57.6489 10.2051V16.8021C57.6489 18.7544 59.2689 20.3655 61.2318 20.3655H61.7609C63.7494 20.3655 65.3438 18.7544 65.3438 16.8021V10.2051C65.3438 8.25286 63.7238 6.6417 61.7609 6.6417H61.2318Z" fill="#FF6C36"/>
<path d="M85.3537 25.9965V22.1592H72.8865V25.9965H70V19.6022H72.8865L78.1792 6.353C78.7361 4.94612 80.163 4 81.8046 4C83.9231 4 85.3537 5.38225 85.3537 7.42926V19.6058H88V26H85.3537V25.9965ZM75.6894 19.6022H82.7037V7.5031C82.7037 6.94035 82.307 6.55698 81.6991 6.55698C81.2477 6.55698 80.851 6.83836 80.6944 7.24636L75.693 19.6022H75.6894Z" fill="#FF6C36"/>
<path d="M103 3.88381V6.47184H93.6081V11.6479H102.48V14.2359H93.6081V19.412H103V22H91V3.87668H103V3.88381ZM93.3498 0H95.9578V2.58801H93.3498V0ZM98.0457 0H100.654V2.58801H98.0457V0Z" fill="#FF6C36"/>
<path d="M106 22L111.008 14.1579C108.128 13.5922 106 11.1738 106 8.24278V4H108.691V8.24278C108.691 10.1697 110.305 11.7148 112.3 11.7148H115.154V4H117.846V11.7148H120.7C122.691 11.7148 124.309 10.1732 124.309 8.24278V4H127V8.24278C127 11.1738 124.872 13.5922 121.992 14.1579L127 22H123.85L118.897 14.2852H117.846V22H115.154V14.2852H114.103L109.15 22H106Z" fill="#FF6C36"/>
<path d="M131 4H133.653V11.4567H141.347V4H144V22H141.347V14.0306H133.653V22H131V4Z" fill="#FF6C36"/>
<path d="M153.765 4C157.242 4 160 6.77233 160 10.2015V16.7985C160 20.2277 157.242 23 153.765 23H153.235C149.788 23 147 20.2277 147 16.7985V10.2015C147 6.77233 149.788 4 153.235 4H153.765ZM153.235 6.6417C151.273 6.6417 149.653 8.25286 149.653 10.2051V16.8021C149.653 18.7544 151.273 20.3655 153.235 20.3655H153.765C155.753 20.3655 157.347 18.7544 157.347 16.8021V10.2051C157.347 8.25286 155.727 6.6417 153.765 6.6417H153.235Z" fill="#FF6C36"/>
<path d="M176 4.00708V6.5775H166.608V11.7183H175.48V14.2888H166.608V19.4296H176V22H164V4H176V4.00708Z" fill="#FF6C36"/>
<path d="M0.00359437 32H30.9819V38.8556H6.73646V51.883H19.5307C26.9386 51.883 33 58.3985 33 65.9415C33 73.4845 26.9386 80 19.5307 80H0V32H0.00359437ZM19.5343 73.1444C23.3729 73.1444 26.2671 69.5795 26.2671 65.9452C26.2671 62.3108 23.3729 58.7459 19.5343 58.7459H6.74003V73.1444H19.5343Z" fill="#FF6C36"/>
<path d="M41 31.6786H47.7988V51.4157H58.6805V46.9922C58.6805 38.1451 65.8201 31 74.6604 31H76.0201C84.9293 31 92 38.1451 92 46.9922V64.0078C92 72.8548 84.9293 80 76.0201 80H74.6604C65.8201 80 58.6805 72.8548 58.6805 64.0078V58.2234H47.7988V79.3214H41V31.6822V31.6786ZM74.6604 37.804C69.6274 37.804 65.4793 41.9554 65.4793 46.9922V64.0078C65.4793 69.0446 69.6274 73.196 74.6604 73.196H76.0201C81.1219 73.196 85.2012 69.0446 85.2012 64.0078V46.9922C85.2012 41.9554 81.053 37.804 76.0201 37.804H74.6604Z" fill="#FF6C36"/>
<path d="M102 32H119.173C127.929 32 135 38.515 135 47.4284C135 56.3418 127.929 62.8569 119.173 62.8569H108.734V80H102V32.0036V32ZM119.177 56.0018C124.162 56.0018 128.27 52.5725 128.27 47.4321C128.27 42.2917 124.162 38.8624 119.177 38.8624H108.737V56.0055H119.177V56.0018Z" fill="#FF6C36"/>
<path d="M159.173 31C167.997 31 175 38.1451 175 46.9922V64.0078C175 72.8548 167.997 80 159.173 80H157.827C149.071 80 142 72.8548 142 64.0078V46.9922C142 38.1451 149.071 31 157.827 31H159.173ZM157.827 37.804C152.842 37.804 148.734 41.9554 148.734 46.9922V64.0078C148.734 69.0446 152.842 73.196 157.827 73.196H159.173C164.226 73.196 168.266 69.0446 168.266 64.0078V46.9922C168.266 41.9554 164.158 37.804 159.173 37.804H157.827Z" fill="#FF6C36"/>
</svg>
