<svg width="190" height="36" viewBox="0 0 190 36" fill="none" xmlns="http://www.w3.org/2000/svg">
<path d="M88.5388 20.8844C87.4248 20.3218 86.1534 20.0405 84.7254 20.0405C84.2591 20.0405 83.7883 20.0806 83.3123 20.16C82.8363 20.2393 82.3603 20.3588 81.8842 20.5183L82.4765 15.3428H91.607V11.7599H79.711L78.6023 22.2696L80.2275 24.1168C80.8655 23.83 81.4907 23.6155 82.1039 23.4717C82.7163 23.3287 83.3018 23.2565 83.8588 23.2565C84.7396 23.2565 85.52 23.405 86.1984 23.702C86.8768 23.999 87.4083 24.4264 87.7936 24.9835C88.1782 25.5405 88.3708 26.2013 88.3708 26.9658C88.3708 27.8152 88.1887 28.5372 87.8236 29.1312C87.4593 29.726 86.9375 30.177 86.2584 30.485C85.5799 30.793 84.7793 30.947 83.858 30.947C82.8655 30.947 81.8902 30.7828 80.9337 30.4536C79.9764 30.1244 79.1533 29.6309 78.4652 28.9725L77.25 32.2686C78.0401 32.9584 79.0401 33.5029 80.2508 33.9005C81.4607 34.2989 82.7351 34.4976 84.0717 34.4976C85.6722 34.4976 87.077 34.192 88.2876 33.5823C89.4975 32.9718 90.4398 32.1146 91.1137 31.0107C91.7869 29.9067 92.1243 28.6119 92.1243 27.1253C92.1243 25.6387 91.8049 24.3682 91.167 23.3115C90.529 22.2555 89.6527 21.4462 88.5388 20.8828V20.8844Z" fill="#333333"/>
<path d="M115.337 12.6753C113.727 11.7254 111.843 11.25 109.686 11.25C108.096 11.25 106.645 11.4889 105.334 11.9666C104.022 12.4443 102.906 13.0972 101.983 13.9253L103.822 16.9668C104.571 16.3194 105.434 15.8338 106.412 15.5101C107.389 15.1864 108.465 15.0246 109.64 15.0246C111.048 15.0246 112.274 15.3168 113.316 15.9006C114.359 16.4844 115.167 17.3448 115.74 18.4801C116.083 19.1613 116.322 19.9368 116.46 20.805H105.69V24.0697H116.531C116.415 25.2365 116.149 26.2508 115.732 27.1112C115.155 28.2999 114.334 29.1949 113.271 29.7944C112.207 30.3939 110.946 30.694 109.488 30.694C108.364 30.694 107.26 30.5298 106.176 30.2006C105.092 29.8714 104.079 29.3512 103.138 28.6402L101.33 31.9048C102.353 32.7329 103.579 33.3725 105.006 33.8235C106.434 34.2745 107.903 34.5 109.412 34.5C111.062 34.5 112.562 34.2211 113.909 33.664C115.256 33.1069 116.415 32.3102 117.388 31.2754C118.36 30.2407 119.11 28.9961 119.637 27.5417C120.163 26.0874 120.427 24.4578 120.427 22.653C120.427 20.3815 119.981 18.3882 119.09 16.6738C118.199 14.9593 116.948 13.6268 115.337 12.6769V12.6753Z" fill="#333333"/>
<path d="M122.25 15.518H128.129V34.0215H132.11V15.518H137.989V11.7285H122.25V15.518Z" fill="#333333"/>
<path d="M146.847 11.7285L138.689 34.0215H143.033L144.781 28.9733H153.319L155.127 34.0215H159.594L151.268 11.7285H146.847ZM145.752 25.4541L148.989 16.4098L152.315 25.4541H145.752Z" fill="#333333"/>
<path d="M189.75 34.0215L181.713 22.2696L188.747 11.7285H184.235L178.452 20.5018H176.882V11.7285H172.917V20.5018H171.34L165.776 11.7285H161.112L168.04 22.4928L160.049 34.0215H164.576L171.349 24.0052H172.917V34.0215H176.882V24.0052H178.417L185.056 34.0215H189.75Z" fill="#333333"/>
<path d="M83.5634 5.53167L81.08 1.53224H80.25V7.85336H81.0303L81.022 2.95884L83.1853 6.43576H83.8436L85.9435 3.02031L85.9345 7.85336H86.7698V1.53224H85.9616L83.5634 5.53167Z" fill="#333333"/>
<path d="M91.4924 3.61404C91.1324 3.40039 90.7226 3.29318 90.2632 3.29318C89.9152 3.29318 89.5966 3.35466 89.3058 3.47835C89.0159 3.60204 88.7628 3.77297 88.5481 3.99112C88.3334 4.20927 88.167 4.45965 88.0487 4.74303C87.9305 5.0264 87.8717 5.32551 87.8717 5.64187C87.8717 6.06917 87.9742 6.4605 88.1805 6.81583C88.3862 7.17117 88.6686 7.45529 89.0287 7.66895C89.3887 7.8826 89.7984 7.9898 90.2579 7.9898C90.6059 7.9898 90.9245 7.92758 91.2152 7.80239C91.5052 7.67719 91.7583 7.50627 91.973 7.28962C92.1876 7.07297 92.3541 6.82333 92.4723 6.53996C92.5906 6.25659 92.6493 5.95747 92.6493 5.64112C92.6493 5.21381 92.5461 4.82249 92.3405 4.46715C92.1349 4.11181 91.8517 3.82769 91.4924 3.61404ZM91.6009 6.48748C91.4676 6.72662 91.2853 6.91179 91.054 7.04298C90.8228 7.17417 90.5584 7.23939 90.2624 7.23939C89.9664 7.23939 89.6968 7.17417 89.464 7.04298C89.2313 6.91179 89.049 6.72662 88.9172 6.48748C88.7854 6.24834 88.7198 5.96572 88.7198 5.64112C88.7198 5.31651 88.7854 5.03314 88.9172 4.7925C89.049 4.55186 89.2305 4.3667 89.4618 4.23701C89.693 4.10732 89.9589 4.04284 90.2579 4.04284C90.5569 4.04284 90.8236 4.10732 91.0563 4.23701C91.289 4.3667 91.4713 4.55186 91.6031 4.7925C91.7349 5.03314 91.8005 5.31651 91.8005 5.64112C91.8005 5.96572 91.7342 6.24834 91.6009 6.48748Z" fill="#333333"/>
<path d="M94.1008 4.81499C94.1008 5.32101 94.0812 5.73183 94.042 6.04743C94.0029 6.36379 93.911 6.60818 93.7678 6.78135C93.624 6.95452 93.398 7.08046 93.09 7.15843L93.3988 7.92158C93.7076 7.83762 93.9592 7.71767 94.1542 7.56249C94.3493 7.40732 94.5007 7.20791 94.6077 6.96427C94.7146 6.72063 94.7892 6.42151 94.8299 6.06767C94.8706 5.71383 94.8909 5.29627 94.8909 4.81499V4.13355H96.7739V7.85411H97.6085V3.42887H94.1015V4.81499H94.1008Z" fill="#333333"/>
<path d="M102.195 3.61404C101.835 3.40039 101.425 3.29318 100.966 3.29318C100.618 3.29318 100.299 3.35466 100.008 3.47835C99.7182 3.60204 99.4651 3.77297 99.2505 3.99112C99.0358 4.20927 98.8693 4.45965 98.7511 4.74303C98.6328 5.0264 98.5741 5.32551 98.5741 5.64187C98.5741 6.06917 98.6765 6.4605 98.8829 6.81583C99.0885 7.17117 99.371 7.45529 99.731 7.66895C100.091 7.8826 100.501 7.9898 100.96 7.9898C101.308 7.9898 101.627 7.92758 101.918 7.80239C102.208 7.67719 102.461 7.50627 102.675 7.28962C102.89 7.07297 103.056 6.82333 103.175 6.53996C103.293 6.25659 103.352 5.95747 103.352 5.64112C103.352 5.21381 103.249 4.82249 103.043 4.46715C102.837 4.11181 102.554 3.82769 102.195 3.61404ZM102.303 6.48748C102.17 6.72662 101.988 6.91179 101.756 7.04298C101.525 7.17417 101.261 7.23939 100.965 7.23939C100.669 7.23939 100.399 7.17417 100.166 7.04298C99.9336 6.91179 99.7514 6.72662 99.6195 6.48748C99.4877 6.24834 99.4222 5.96572 99.4222 5.64112C99.4222 5.31651 99.4877 5.03314 99.6195 4.7925C99.7514 4.55186 99.9329 4.3667 100.164 4.23701C100.395 4.10732 100.661 4.04284 100.96 4.04284C101.259 4.04284 101.526 4.10732 101.759 4.23701C101.991 4.3667 102.174 4.55186 102.305 4.7925C102.437 5.03314 102.503 5.31651 102.503 5.64112C102.503 5.96572 102.437 6.24834 102.303 6.48748Z" fill="#333333"/>
<path d="M108.419 3.42887H104.822V4.81499C104.822 5.29328 104.796 5.69509 104.745 6.0182C104.694 6.34205 104.594 6.59768 104.448 6.78585C104.301 6.97401 104.081 7.10595 103.788 7.18092V9.208H104.555V7.85336H108.552V9.208H109.319V7.14868H108.42V3.42812L108.419 3.42887ZM105.076 7.14943C105.165 7.04523 105.241 6.92828 105.303 6.79934C105.418 6.5602 105.498 6.27533 105.543 5.94623C105.588 5.61638 105.611 5.2393 105.611 4.81499V4.13355H107.584V7.15018H105.075L105.076 7.14943Z" fill="#333333"/>
<path d="M113.015 2.5975C113.115 2.5975 113.207 2.57426 113.291 2.52778C113.375 2.4813 113.444 2.41608 113.495 2.33362C113.546 2.25116 113.572 2.1552 113.572 2.0465C113.572 1.88682 113.517 1.75638 113.406 1.65368C113.296 1.55173 113.165 1.5 113.014 1.5C112.914 1.5 112.822 1.52324 112.737 1.56972C112.653 1.6162 112.585 1.68142 112.533 1.76388C112.482 1.84709 112.456 1.9408 112.456 2.04575C112.456 2.20543 112.512 2.33737 112.624 2.44082C112.736 2.54502 112.866 2.59675 113.015 2.59675V2.5975Z" fill="#333333"/>
<path d="M111.155 2.5975C111.255 2.5975 111.347 2.57426 111.431 2.52778C111.516 2.4813 111.584 2.41608 111.635 2.33362C111.687 2.25116 111.712 2.1552 111.712 2.0465C111.712 1.88682 111.657 1.75638 111.547 1.65368C111.436 1.55173 111.306 1.5 111.154 1.5C111.054 1.5 110.962 1.52324 110.878 1.56972C110.793 1.6162 110.725 1.68142 110.674 1.76388C110.622 1.84709 110.597 1.9408 110.597 2.04575C110.597 2.20543 110.653 2.33737 110.765 2.44082C110.877 2.54502 111.007 2.59675 111.155 2.59675V2.5975Z" fill="#333333"/>
<path d="M113.766 4.01361C113.58 3.78646 113.345 3.60954 113.062 3.48285C112.779 3.35616 112.458 3.29318 112.098 3.29318C111.765 3.29318 111.458 3.35166 111.175 3.46935C110.891 3.58705 110.644 3.75048 110.433 3.96188C110.221 4.17328 110.058 4.42217 109.943 4.71154C109.828 5.00016 109.771 5.31352 109.771 5.65086C109.771 6.11715 109.871 6.52647 110.072 6.87656C110.273 7.22665 110.555 7.50027 110.915 7.69593C111.277 7.89159 111.693 7.9898 112.165 7.9898C112.368 7.9898 112.576 7.96881 112.791 7.92683C113.006 7.88485 113.212 7.82263 113.41 7.73941C113.608 7.65695 113.78 7.5565 113.925 7.43955L113.571 6.82108C113.39 6.97476 113.181 7.09021 112.945 7.16892C112.71 7.24689 112.467 7.28662 112.219 7.28662C111.88 7.28662 111.588 7.22515 111.341 7.10145C111.094 6.97776 110.906 6.80534 110.776 6.58419C110.646 6.36304 110.586 6.10516 110.595 5.80979H114.215C114.263 5.45145 114.247 5.11935 114.166 4.81424C114.084 4.50913 113.95 4.24225 113.764 4.01511L113.766 4.01361ZM110.642 5.16284C110.684 4.7895 110.836 4.49864 111.095 4.28873C111.355 4.07958 111.685 3.97463 112.084 3.97463C112.484 3.97463 112.812 4.07958 113.033 4.28873C113.253 4.49789 113.37 4.7895 113.382 5.16284H110.642Z" fill="#333333"/>
<path d="M121.085 3.42887H120.201L119.151 5.17183H118.423V3.42887H117.587V5.17183H116.855L115.832 3.42887H114.916L116.14 5.50093L114.712 7.85336H115.673L116.818 5.88026H117.587V7.85336H118.423V5.88026H119.18L120.305 7.85336H121.303L119.861 5.45145L121.085 3.42887Z" fill="#333333"/>
<path d="M125.404 5.17183H122.995V3.42887H122.161V7.85336H122.995V5.88026H125.404V7.85336H126.239V3.42887H125.404V5.17183Z" fill="#333333"/>
<path d="M130.826 3.61404C130.466 3.40039 130.056 3.29318 129.597 3.29318C129.249 3.29318 128.93 3.35466 128.639 3.47835C128.349 3.60204 128.096 3.77297 127.881 3.99112C127.667 4.20927 127.5 4.45965 127.382 4.74303C127.264 5.0264 127.205 5.32551 127.205 5.64187C127.205 6.06917 127.308 6.4605 127.514 6.81583C127.72 7.17117 128.002 7.45529 128.362 7.66895C128.722 7.8826 129.132 7.9898 129.591 7.9898C129.939 7.9898 130.258 7.92758 130.549 7.80239C130.839 7.67719 131.092 7.50627 131.306 7.28962C131.521 7.07297 131.687 6.82333 131.806 6.53996C131.924 6.25659 131.983 5.95747 131.983 5.64112C131.983 5.21381 131.88 4.82249 131.674 4.46715C131.468 4.11181 131.185 3.82769 130.826 3.61404ZM130.935 6.48748C130.802 6.72662 130.619 6.91179 130.388 7.04298C130.157 7.17417 129.893 7.23939 129.597 7.23939C129.301 7.23939 129.031 7.17417 128.798 7.04298C128.565 6.91179 128.383 6.72662 128.251 6.48748C128.119 6.24834 128.054 5.96572 128.054 5.64112C128.054 5.31651 128.119 5.03314 128.251 4.7925C128.383 4.55186 128.565 4.3667 128.796 4.23701C129.027 4.10732 129.293 4.04284 129.592 4.04284C129.891 4.04284 130.158 4.10732 130.39 4.23701C130.623 4.3667 130.805 4.55186 130.937 4.7925C131.069 5.03314 131.135 5.31651 131.135 5.64112C131.135 5.96572 131.068 6.24834 130.935 6.48748Z" fill="#333333"/>
<path d="M136.549 4.01361C136.363 3.78646 136.129 3.60954 135.846 3.48285C135.563 3.35616 135.242 3.29318 134.882 3.29318C134.549 3.29318 134.242 3.35166 133.958 3.46935C133.675 3.58705 133.428 3.75048 133.216 3.96188C133.005 4.17328 132.841 4.42217 132.727 4.71154C132.612 5.00016 132.554 5.31352 132.554 5.65086C132.554 6.11715 132.655 6.52647 132.856 6.87656C133.057 7.22665 133.338 7.50027 133.699 7.69593C134.061 7.89159 134.477 7.9898 134.949 7.9898C135.151 7.9898 135.36 7.96881 135.575 7.92683C135.789 7.88485 135.996 7.82263 136.194 7.73941C136.392 7.65695 136.564 7.5565 136.709 7.43955L136.355 6.82108C136.174 6.97476 135.965 7.09021 135.729 7.16892C135.493 7.24689 135.251 7.28662 135.003 7.28662C134.664 7.28662 134.372 7.22515 134.125 7.10145C133.878 6.97776 133.69 6.80534 133.56 6.58419C133.43 6.36304 133.369 6.10516 133.378 5.80979H136.999C137.047 5.45145 137.031 5.11935 136.949 4.81424C136.868 4.50913 136.734 4.24225 136.548 4.01511L136.549 4.01361ZM133.426 5.16284C133.468 4.7895 133.619 4.49864 133.879 4.28873C134.139 4.07958 134.469 3.97463 134.868 3.97463C135.267 3.97463 135.596 4.07958 135.817 4.28873C136.037 4.49789 136.154 4.7895 136.166 5.16284H133.426Z" fill="#333333"/>
<path d="M144.008 4.65007C143.598 4.33821 143.057 4.18303 142.386 4.18303H141.166V2.29089H144.197V1.53224H140.313V7.85411H142.378C142.852 7.85411 143.257 7.78289 143.591 7.63971C143.926 7.49652 144.181 7.28887 144.358 7.01674C144.535 6.74462 144.623 6.41102 144.623 6.0167C144.623 5.41772 144.418 4.96268 144.008 4.65082L144.008 4.65007ZM143.386 6.86906C143.146 7.06172 142.805 7.15843 142.363 7.15843H141.166V4.87796H142.395C142.815 4.87796 143.146 4.98142 143.386 5.18982C143.627 5.39748 143.747 5.6771 143.747 6.02944C143.747 6.38178 143.627 6.6764 143.386 6.86906Z" fill="#333333"/>
<path d="M151.269 3.61404C150.909 3.40039 150.497 3.29318 150.035 3.29318C149.69 3.29318 149.373 3.35466 149.082 3.47835C148.791 3.60204 148.539 3.77297 148.324 3.99112C148.11 4.20927 147.943 4.45965 147.825 4.74303C147.767 4.88171 147.723 5.0249 147.694 5.17183H146.605L146.614 3.42887H145.779V7.85411H146.614L146.605 5.88101H147.661C147.692 6.21611 147.79 6.52796 147.957 6.81583C148.162 7.17117 148.445 7.45529 148.805 7.66895C149.165 7.8826 149.575 7.9898 150.034 7.9898C150.382 7.9898 150.701 7.92758 150.991 7.80239C151.281 7.67719 151.535 7.50627 151.749 7.28962C151.964 7.07297 152.13 6.82333 152.248 6.53996C152.366 6.25734 152.425 5.95747 152.425 5.64112C152.425 5.21381 152.322 4.82249 152.116 4.46715C151.91 4.11181 151.627 3.82769 151.268 3.61404H151.269ZM151.377 6.48748C151.244 6.72662 151.062 6.91179 150.83 7.04298C150.599 7.17417 150.333 7.23939 150.034 7.23939C149.735 7.23939 149.473 7.17417 149.24 7.04298C149.007 6.91179 148.825 6.72662 148.693 6.48748C148.562 6.24834 148.496 5.96572 148.496 5.64112C148.496 5.31651 148.562 5.03314 148.693 4.7925C148.825 4.55186 149.007 4.3667 149.238 4.23701C149.469 4.10732 149.735 4.04284 150.034 4.04284C150.333 4.04284 150.599 4.10732 150.83 4.23701C151.062 4.3667 151.244 4.55186 151.377 4.7925C151.51 5.03314 151.577 5.31651 151.577 5.64112C151.577 5.96572 151.51 6.24834 151.377 6.48748Z" fill="#333333"/>
<path d="M157.08 3.60204C156.744 3.39589 156.356 3.29244 155.914 3.29244C155.473 3.29244 155.135 3.36665 154.855 3.51583C154.576 3.66502 154.343 3.85693 154.159 4.09157V3.42812H153.392V9.75H154.222V7.2259C154.41 7.45754 154.643 7.64271 154.923 7.78139C155.203 7.92008 155.53 7.98905 155.905 7.98905C156.241 7.98905 156.546 7.92833 156.82 7.80613C157.093 7.68394 157.33 7.51602 157.53 7.30011C157.73 7.08496 157.883 6.83533 157.99 6.55045C158.097 6.26633 158.151 5.96272 158.151 5.64037C158.151 5.19807 158.057 4.79925 157.868 4.44391C157.679 4.08857 157.417 3.8082 157.081 3.60204H157.08ZM157.105 6.48748C156.973 6.72662 156.792 6.91179 156.561 7.04298C156.329 7.17417 156.064 7.23939 155.765 7.23939C155.465 7.23939 155.2 7.17417 154.968 7.04298C154.737 6.91179 154.555 6.72662 154.422 6.48748C154.288 6.24834 154.222 5.96572 154.222 5.64112C154.222 5.31651 154.288 5.03314 154.422 4.7925C154.555 4.55186 154.737 4.3667 154.968 4.23701C155.2 4.10732 155.466 4.04284 155.765 4.04284C156.064 4.04284 156.326 4.10732 156.558 4.23701C156.791 4.3667 156.973 4.55186 157.105 4.7925C157.237 5.03314 157.303 5.31651 157.303 5.64112C157.303 5.96572 157.237 6.24834 157.105 6.48748Z" fill="#333333"/>
<path d="M163.191 4.46715C162.986 4.11181 162.702 3.82769 162.343 3.61404C161.983 3.40039 161.573 3.29318 161.114 3.29318C160.766 3.29318 160.447 3.35466 160.157 3.47835C159.867 3.60204 159.613 3.77297 159.399 3.99112C159.184 4.20927 159.018 4.45965 158.899 4.74303C158.781 5.0264 158.722 5.32551 158.722 5.64187C158.722 6.06917 158.825 6.4605 159.031 6.81583C159.237 7.17117 159.519 7.45529 159.879 7.66895C160.239 7.8826 160.649 7.9898 161.109 7.9898C161.457 7.9898 161.775 7.92758 162.066 7.80239C162.356 7.67719 162.609 7.50627 162.824 7.28962C163.038 7.07297 163.205 6.82333 163.323 6.53996C163.441 6.25659 163.5 5.95747 163.5 5.64112C163.5 5.21381 163.397 4.82249 163.191 4.46715ZM162.452 6.48748C162.318 6.72662 162.136 6.91179 161.905 7.04298C161.673 7.17417 161.409 7.23939 161.113 7.23939C160.817 7.23939 160.547 7.17417 160.315 7.04298C160.082 6.91179 159.9 6.72662 159.768 6.48748C159.636 6.24834 159.571 5.96572 159.571 5.64112C159.571 5.31651 159.636 5.03314 159.768 4.7925C159.9 4.55186 160.081 4.3667 160.312 4.23701C160.544 4.10732 160.81 4.04284 161.109 4.04284C161.408 4.04284 161.674 4.10732 161.907 4.23701C162.14 4.3667 162.322 4.55186 162.454 4.7925C162.586 5.03314 162.651 5.31651 162.651 5.64112C162.651 5.96572 162.585 6.24834 162.452 6.48748Z" fill="#333333"/>
<path d="M63.7436 1.49241V34.5076H1.50641V18.7992C1.50641 17.1628 1.81296 15.5398 2.41703 13.9765C2.61362 13.4668 2.83882 12.9691 3.08738 12.4945C4.11927 10.5133 5.61588 8.70749 7.53505 7.12628C9.47379 5.52939 11.7545 4.23398 14.3139 3.27809C14.4495 3.22734 14.5813 3.17959 14.7101 3.13332C14.8238 3.28555 14.9292 3.44076 15.0257 3.59896C15.0257 3.59896 15.052 3.64149 15.0784 3.68402L16.4183 5.82041L17.6694 3.63179C18.0091 3.03781 18.4678 2.48338 19.0365 1.97894C20.7138 1.67076 22.4364 1.50734 24.1613 1.49241H24.7781C26.4834 1.50734 28.1849 1.66703 29.8412 1.96625C30.443 2.4789 30.9333 3.049 31.3009 3.66462L32.6416 5.9107L33.916 3.62731C34.0086 3.46091 34.1133 3.296 34.2293 3.13258C34.4417 3.20794 34.6526 3.28629 34.8605 3.36688C37.0772 4.2198 39.0928 5.33612 40.8492 6.68303C42.617 8.04112 44.0722 9.60741 45.1749 11.3394L47.9549 15.7047V1.49241H63.7428M65.25 0H46.4493V10.5424C45.2547 8.66645 43.6737 6.96435 41.7727 5.50327C39.919 4.08175 37.7716 2.88558 35.4058 1.97521C34.859 1.76329 34.2994 1.56853 33.7269 1.39093C33.2825 1.85805 32.8992 2.36398 32.5979 2.90498C32.0774 2.03267 31.3634 1.24467 30.5002 0.570848C28.6684 0.214908 26.7568 0.0164165 24.7849 0H24.1552C22.157 0.0164165 20.2152 0.221623 18.3616 0.588011C17.5308 1.26034 16.8484 2.03938 16.3588 2.89603C16.337 2.86096 16.3151 2.82514 16.3151 2.82514C16.0048 2.31772 15.629 1.84089 15.1914 1.3969C14.7146 1.54465 14.2423 1.70956 13.7836 1.88044C8.33419 3.91759 4.01382 7.46281 1.74894 11.8102C1.46875 12.3445 1.22396 12.8885 1.01005 13.4429C0.354006 15.1398 0 16.9374 0 18.7992V36H65.25V0Z" fill="#333333"/>
</svg>
