<svg width="133" height="127" viewBox="0 0 133 127" fill="none" xmlns="http://www.w3.org/2000/svg">
<path d="M3.16667 0.500315C2.32684 0.500399 1.52143 0.832298 0.927588 1.42302C0.333741 2.01373 8.39701e-05 2.8149 0 3.6503V123.35C8.39701e-05 124.185 0.333741 124.986 0.927588 125.577C1.52143 126.168 2.32684 126.5 3.16667 126.5H12.6667C13.0863 126.506 13.5029 126.428 13.8923 126.273C14.2817 126.117 14.6361 125.886 14.935 125.593C15.2338 125.3 15.4711 124.951 15.6331 124.566C15.795 124.18 15.8784 123.767 15.8784 123.35C15.8784 122.932 15.795 122.519 15.6331 122.134C15.4711 121.749 15.2338 121.4 14.935 121.106C14.6361 120.813 14.2817 120.582 13.8923 120.427C13.5029 120.271 13.0863 120.194 12.6667 120.2H6.33333V6.80028H12.6667C13.0863 6.80619 13.5029 6.72907 13.8923 6.57342C14.2817 6.41777 14.6361 6.18668 14.935 5.89359C15.2338 5.6005 15.4711 5.25126 15.6331 4.86615C15.795 4.48104 15.8784 4.06775 15.8784 3.6503C15.8784 3.23285 15.795 2.81956 15.6331 2.43445C15.4711 2.04934 15.2338 1.70009 14.935 1.40701C14.6361 1.11392 14.2817 0.882833 13.8923 0.72718C13.5029 0.571528 13.0863 0.494412 12.6667 0.500315H3.16667ZM120.333 0.500315C119.914 0.494412 119.497 0.571528 119.108 0.72718C118.718 0.882833 118.364 1.11392 118.065 1.40701C117.766 1.70009 117.529 2.04934 117.367 2.43445C117.205 2.81956 117.122 3.23285 117.122 3.6503C117.122 4.06775 117.205 4.48104 117.367 4.86615C117.529 5.25126 117.766 5.6005 118.065 5.89359C118.364 6.18668 118.718 6.41777 119.108 6.57342C119.497 6.72907 119.914 6.80619 120.333 6.80028H126.667V120.2H120.333C119.914 120.194 119.497 120.271 119.108 120.427C118.718 120.582 118.364 120.813 118.065 121.106C117.766 121.4 117.529 121.749 117.367 122.134C117.205 122.519 117.122 122.932 117.122 123.35C117.122 123.767 117.205 124.18 117.367 124.566C117.529 124.951 117.766 125.3 118.065 125.593C118.364 125.886 118.718 126.117 119.108 126.273C119.497 126.428 119.914 126.506 120.333 126.5H129.833C130.673 126.5 131.479 126.168 132.072 125.577C132.666 124.986 133 124.185 133 123.35V3.6503C133 2.8149 132.666 2.01373 132.072 1.42302C131.479 0.832298 130.673 0.500399 129.833 0.500315H120.333ZM85.7845 36.7497C81.7238 36.6597 77.5986 37.6607 74.1322 40.0351C73.0051 40.8087 72.2095 41.6121 71.2933 42.4283C69.8933 40.8336 68.3339 39.4794 66.5495 38.657C63.6929 37.3404 60.6086 36.9367 57.5381 36.8851C54.1013 36.8263 51.0524 37.8048 48.5267 39.4445C48.0838 39.732 47.7797 40.2257 47.3639 40.5457C47.1685 39.8972 46.7681 39.3285 46.2222 38.924C45.6764 38.5195 45.014 38.3008 44.3333 38.3001H31.6667C30.8268 38.3002 30.0214 38.6321 29.4276 39.2228C28.8337 39.8135 28.5001 40.6147 28.5 41.4501V85.5499C28.5001 86.3853 28.8337 87.1865 29.4276 87.7772C30.0214 88.3679 30.8268 88.6998 31.6667 88.6999H44.3333C44.7497 88.6998 45.162 88.6181 45.5465 88.4594C45.9311 88.3007 46.2805 88.0681 46.5746 87.775C46.8687 87.4818 47.1019 87.1339 47.2606 86.751C47.4194 86.3682 47.5008 85.9579 47.5 85.5437C47.5 85.5437 47.4683 73.3125 47.5 65.1427C47.506 63.7645 47.5719 62.4882 47.7969 61.4144C48.431 58.3932 50.3486 56.9404 53.4437 57.1877C55.0519 57.3167 55.607 57.6639 56.029 58.1659C56.4509 58.668 56.9116 59.7592 57 61.8942C56.9867 61.5551 57.0108 63.5885 57.0124 65.8563C57.014 68.1242 57.0145 71.0665 57.0124 73.9835C57.008 79.8177 57 85.5437 57 85.5437C56.9992 85.9579 57.0806 86.3682 57.2394 86.751C57.3981 87.1339 57.6313 87.4818 57.9254 87.775C58.2195 88.0681 58.5689 88.3007 58.9535 88.4594C59.338 88.6181 59.7503 88.6998 60.1667 88.6999H72.8333C73.6732 88.6998 74.4786 88.3679 75.0724 87.7772C75.6663 87.1865 75.9999 86.3853 76 85.5499V65.3395C76.0171 63.652 76.1972 61.9525 76.5814 60.4238C76.9322 59.0322 77.515 58.3091 78.3255 57.803C79.136 57.2968 80.3278 56.993 82.0426 57.1816H82.0488C83.5414 57.3454 84.1591 57.7071 84.5723 58.1598C84.9829 58.6097 85.38 59.4533 85.5 61.156V85.5499C85.5001 86.3853 85.8337 87.1865 86.4276 87.7772C87.0214 88.3679 87.8268 88.6998 88.6667 88.6999H101.333C102.173 88.6998 102.979 88.3679 103.572 87.7772C104.166 87.1865 104.5 86.3853 104.5 85.5499V54.05C104.5 50.6719 103.435 48.0381 102.403 45.9721C99.9842 41.1244 95.0453 38.2411 89.7985 37.1927C88.4868 36.9306 87.1381 36.7797 85.7845 36.7497ZM85.6794 43.062C86.6452 43.0785 87.6138 43.1815 88.5553 43.3696C92.3216 44.1222 95.4395 46.188 96.7318 48.7775C97.6191 50.5545 98.1667 51.8842 98.1667 54.05V82.3999H91.8333V60.9591C91.8336 60.8893 91.8315 60.8196 91.8271 60.7499C91.6499 58.1429 90.9127 55.7375 89.2604 53.927C87.6081 52.1165 85.239 51.1926 82.7415 50.9185C79.9313 50.6094 77.2023 51.0631 74.9609 52.4627C72.7196 53.8624 71.1213 56.1886 70.4398 58.8919V58.8981C69.9058 61.0233 69.6877 63.1857 69.6667 65.2719C69.6666 65.2821 69.6666 65.2924 69.6667 65.3026V82.3999H63.3395C63.3423 80.4315 63.3424 78.2342 63.3457 73.9897C63.3479 71.071 63.3473 68.1239 63.3457 65.8502C63.3441 63.5764 63.3641 62.4205 63.3333 61.642V61.6358C63.2128 58.7247 62.5789 56.1331 60.8903 54.1239C59.2017 52.1146 56.6302 51.1267 53.957 50.9124H53.9508C48.0589 50.4415 42.8022 54.3929 41.5996 60.1224V60.1285C41.2293 61.8959 41.1733 63.5857 41.1667 65.1181C41.1398 72.0603 41.1603 79.534 41.1667 82.3999H34.8333V44.6001H41.1667V47.7501C41.1671 48.397 41.3677 49.0281 41.7412 49.5576C42.1147 50.0872 42.6431 50.4895 43.2545 50.7099C43.8659 50.9304 44.5308 50.9582 45.1586 50.7897C45.7865 50.6212 46.347 50.2645 46.764 49.768C48.6693 47.4955 50.3503 45.7838 51.9841 44.7231C53.6178 43.6625 55.1666 43.1463 57.4329 43.1851C59.9896 43.228 62.1851 43.5957 63.8838 44.3786C65.5825 45.1615 66.87 46.2702 67.9411 48.3961C68.1562 48.8241 68.4666 49.1978 68.8486 49.4887C69.2307 49.7797 69.6743 49.9802 70.1459 50.0751C70.6174 50.17 71.1046 50.1567 71.5702 50.0364C72.0359 49.916 72.4678 49.6917 72.8333 49.3804C74.7605 47.7378 76.2597 46.2284 77.7256 45.2215C79.895 43.7355 82.7818 43.0127 85.6794 43.062Z" fill="white"/>
</svg>
