<svg width="96" height="96" viewBox="0 0 96 96" fill="none" xmlns="http://www.w3.org/2000/svg">
<path d="M47.8086 0.754395C21.6171 0.754395 0.308594 22.0629 0.308594 48.2544C0.308594 74.4459 21.6171 95.7544 47.8086 95.7544C74.0001 95.7544 95.3086 74.4459 95.3086 48.2544C95.3086 22.0629 74.0001 0.754395 47.8086 0.754395ZM58.9136 19.7822C64.6935 20.0944 69.2823 22.4467 70.3154 26.499C71.9399 32.883 66.3995 40.5132 59.3125 43.2539C52.9855 45.7002 47.7523 45.3161 45.6006 44.6084C43.1543 43.8056 41.7216 42.1898 41.3701 41.2778C41.2324 40.9216 40.9949 40.3272 41.3701 40.1182C41.5981 39.9899 41.6944 40.0189 42.3071 40.6934C42.8914 41.3346 45.2364 43.0661 49.6919 42.5674C61.3911 41.2564 68.4378 32.1615 66.2148 27.269C64.6568 23.8443 55.6382 22.304 44.376 27.9185C30.6247 34.7775 29.8736 40.4344 29.7549 42.5767C29.4319 48.4762 37.0385 51.5749 41.1567 55.9639L41.4443 56.2793C42.6888 55.8138 44.4092 55.5568 47.1499 55.5093C53.8047 55.3953 57.5674 59.7917 57.4106 63.7104C57.2871 66.798 54.4544 68.064 53.9224 68.1543C53.5376 68.2208 53.3392 68.2309 53.2822 67.9316C53.2442 67.7274 53.3831 67.6319 53.8296 67.3564C54.2808 67.0809 55.6191 66.1572 55.8613 64.4805C56.1036 62.8085 54.8425 58.811 48.4394 58.0605C46.169 57.7945 44.384 57.9722 42.8545 58.376C43.966 60.8222 44.1761 65.7457 41.6206 69.5552C38.9749 73.5072 34.0469 75.909 29.2446 74.5742C27.6961 74.142 25.3519 70.9401 27.3706 66.4751C29.2849 62.2428 37.4707 58.1013 38.5869 57.5503V57.5317C34.7964 54.2685 25.5828 49.8779 24.2812 43.1519C23.9107 41.2471 24.8086 36.6786 30.4136 31.4346C35.1256 27.0266 41.6829 23.6503 47.7344 21.4985C51.5498 20.143 55.4456 19.5949 58.9136 19.7822ZM40.1548 59.5542C40.0408 59.6159 39.93 59.6827 39.8208 59.7397V59.749C39.8208 59.749 36.0188 61.5436 33.373 64.3413C30.9125 66.9396 30.2331 70.2044 31.6011 71.0024C32.8741 71.7387 35.8376 70.8665 37.9561 68.5532C38.6496 67.7932 39.2125 66.9735 39.6353 66.0947C39.7208 65.919 39.8005 65.7371 39.8765 65.5566C39.9477 65.3761 40.0095 65.1945 40.0713 65.0093C40.6175 63.3515 40.6868 61.5207 40.1548 59.5542Z" fill="white"/>
</svg>
