<svg width="112" height="112" viewBox="0 0 112 112" fill="none" xmlns="http://www.w3.org/2000/svg">
<path d="M50.5127 25.7334L38.7659 45.1155H32.3963L20.6495 25.7334H28.0181L35.5811 38.1231L43.1441 25.7334H50.5127Z" fill="white"/>
<path d="M87.5385 47.6389L64.9551 38.7653V32.5093L87.5385 23.5248V30.3131L72.2758 35.7482L87.5385 41.0724V47.6389Z" fill="white"/>
<path d="M24.1445 79.741V72.7517H47.0184V79.741H24.1445Z" fill="white"/>
<path d="M61.3145 76.3232V76.0814C61.3145 72.9168 62.6732 70.3528 65.3907 68.3896C68.1082 66.4263 71.7341 65.4447 76.2682 65.4447C80.8318 65.4447 84.4577 66.4263 87.1456 68.3896C89.8336 70.3528 91.1776 72.9168 91.1776 76.0814V76.3232C91.1776 79.6197 89.8336 82.2349 87.1456 84.1689C84.4577 86.0882 80.8318 87.0478 76.2682 87.0478C71.7193 87.0478 68.0861 86.0882 65.3686 84.1689C62.6658 82.2349 61.3145 79.6197 61.3145 76.3232ZM69.0018 76.1474V76.477C69.0018 77.8542 69.6147 78.9384 70.8405 79.7296C72.0664 80.5207 73.8682 80.9163 76.246 80.9163C78.6534 80.9163 80.4552 80.5207 81.6515 79.7296C82.8626 78.9384 83.4681 77.8469 83.4681 76.455V76.1474C83.4681 74.7555 82.8626 73.6787 81.6515 72.9168C80.4552 72.1549 78.6534 71.774 76.246 71.774C73.8682 71.774 72.0664 72.1549 70.8405 72.9168C69.6147 73.6787 69.0018 74.7555 69.0018 76.1474Z" fill="white"/>
</svg>
