<svg width="106" height="105" viewBox="0 0 106 105" fill="none" xmlns="http://www.w3.org/2000/svg">
<path d="M93.381 0H12.619C5.6609 0 0 5.6075 0 12.5V92.5C0 99.3925 5.6609 105 12.619 105H93.381C100.339 105 106 99.3925 106 92.5V12.5C106 5.6075 100.339 0 93.381 0ZM60.5714 82.5H32.8095L25.2381 27.5L45.4286 24.9975L50.4762 65C55.1023 57.705 60.5714 45.3175 60.5714 37.5C60.5714 33.2225 59.2313 29.9 58.0476 27.5L78.2381 22.5C80.3909 25.9425 80.7619 31.9875 80.7619 36.465C80.7619 50.75 70.7929 69.47 60.5714 82.5Z" fill="white"/>
</svg>
