<svg width="36" height="36" viewBox="0 0 36 36" fill="none" xmlns="http://www.w3.org/2000/svg">
<circle cx="18.25" cy="18" r="17" stroke="#333333"/>
<path fill-rule="evenodd" clip-rule="evenodd" d="M21.9227 26.7886C20.6027 26.74 16.8618 26.223 12.944 22.3061C9.02708 18.3883 8.511 14.6483 8.4615 13.3273C8.38816 11.3143 9.93 9.3591 11.7111 8.59551C11.9256 8.5029 12.1604 8.46764 12.3927 8.49319C12.6249 8.51874 12.8465 8.60423 13.0357 8.74126C14.5023 9.8101 15.5143 11.4271 16.3833 12.6985C16.5745 12.9779 16.6563 13.3178 16.613 13.6535C16.5697 13.9892 16.4045 14.2973 16.1487 14.519L14.3602 15.8473C14.2738 15.9097 14.213 16.0013 14.1891 16.1051C14.1651 16.209 14.1797 16.318 14.2301 16.4119C14.6352 17.148 15.3557 18.2443 16.1807 19.0693C17.0057 19.8943 18.1543 20.6625 18.9417 21.1135C19.0405 21.1689 19.1567 21.1844 19.2665 21.1568C19.3763 21.1292 19.4713 21.0606 19.5321 20.965L20.6962 19.1931C20.9103 18.9088 21.226 18.7183 21.5773 18.6616C21.9286 18.6049 22.2883 18.6863 22.5809 18.8888C23.8707 19.7816 25.3758 20.7762 26.4777 22.1869C26.6258 22.3775 26.7201 22.6044 26.7505 22.8439C26.781 23.0833 26.7466 23.3266 26.6509 23.5482C25.8837 25.3384 23.9422 26.8628 21.9227 26.7886Z" fill="#333333"/>
</svg>
