<svg width="35" height="36" viewBox="0 0 35 36" fill="none" xmlns="http://www.w3.org/2000/svg">
<circle cx="17.5" cy="18.1589" r="17.5" fill="#333333"/>
<path fill-rule="evenodd" clip-rule="evenodd" d="M21.1727 26.9475C19.8527 26.899 16.1118 26.382 12.194 22.465C8.27708 18.5472 7.761 14.8072 7.7115 13.4863C7.63816 11.4733 9.18 9.51803 10.9611 8.75445C11.1756 8.66184 11.4104 8.62658 11.6427 8.65213C11.8749 8.67768 12.0965 8.76317 12.2857 8.9002C13.7523 9.96903 14.7643 11.586 15.6333 12.8575C15.8245 13.1368 15.9063 13.4767 15.863 13.8124C15.8197 14.1482 15.6545 14.4562 15.3987 14.678L13.6102 16.0062C13.5238 16.0686 13.463 16.1602 13.4391 16.2641C13.4151 16.3679 13.4297 16.4769 13.4801 16.5709C13.8852 17.3069 14.6057 18.4033 15.4307 19.2283C16.2557 20.0533 17.4043 20.8215 18.1917 21.2725C18.2905 21.3279 18.4067 21.3434 18.5165 21.3157C18.6263 21.2881 18.7213 21.2195 18.7821 21.124L19.9462 19.352C20.1603 19.0677 20.476 18.8773 20.8273 18.8205C21.1786 18.7638 21.5383 18.8452 21.8309 19.0477C23.1207 19.9405 24.6258 20.9351 25.7277 22.3459C25.8758 22.5364 25.9701 22.7633 26.0005 23.0028C26.031 23.2422 25.9966 23.4855 25.9009 23.7071C25.1337 25.4974 23.1922 27.0218 21.1727 26.9475Z" fill="white"/>
</svg>
