<svg width="39" height="38" viewBox="0 0 39 38" fill="none" xmlns="http://www.w3.org/2000/svg">
<path d="M19.7495 1.52002C29.4038 1.52002 37.2295 9.34574 37.2295 19C37.2295 28.6543 29.4038 36.48 19.7495 36.48C10.0953 36.48 2.26953 28.6543 2.26953 19C2.26953 9.34574 10.0953 1.52002 19.7495 1.52002ZM25.7794 26.125C26.1008 25.1385 27.6072 15.3072 27.7934 13.3699C27.8496 12.7832 27.6642 12.3933 27.3009 12.2193C26.8616 12.008 26.2111 12.1137 25.4564 12.3857C24.4212 12.7589 11.1881 18.3776 10.4236 18.7029C9.69853 19.0107 9.01301 19.3466 9.01301 19.833C9.01301 20.175 9.21593 20.3673 9.77529 20.5671C10.3575 20.7746 11.8235 21.2192 12.6891 21.4579C13.5229 21.6881 14.4721 21.4883 15.0041 21.1577C15.568 20.8073 22.0759 16.4525 22.5433 16.071C23.0099 15.6895 23.3823 16.1781 23.0008 16.5604C22.6193 16.9419 18.152 21.2777 17.563 21.8781C16.8479 22.607 17.3555 23.3624 17.8351 23.6649C18.3831 24.0099 22.3237 26.6532 22.9172 27.0773C23.5108 27.5014 24.1127 27.6937 24.6637 27.6937C25.2147 27.6937 25.505 26.9679 25.7794 26.125Z" fill="#333333"/>
</svg>
