<svg width="39" height="38" viewBox="0 0 39 38" fill="none" xmlns="http://www.w3.org/2000/svg">
<path d="M19.7495 1.52002C10.1112 1.52002 2.26953 9.3617 2.26953 19C2.26953 28.6383 10.1112 36.48 19.7495 36.48C29.3886 36.48 37.2295 28.6383 37.2295 19C37.2295 9.3617 29.3886 1.52002 19.7495 1.52002ZM27.329 22.4466C29.0291 23.956 29.3825 24.4948 29.4403 24.5868C30.1448 25.704 28.659 25.84 28.659 25.84H25.5278C25.5278 25.84 24.7655 25.8484 24.1142 25.4167C23.0525 24.7213 21.9406 23.3731 21.1593 23.6071C20.5035 23.8032 20.5095 24.6894 20.5095 25.4471C20.5095 25.7184 20.2762 25.84 19.7495 25.84C19.2229 25.84 19.004 25.84 18.7707 25.84C17.0553 25.84 15.1941 25.2624 13.3374 23.3221C10.7109 20.5793 8.40729 15.0541 8.40729 15.0541C8.40729 15.0541 8.27125 14.7759 8.41945 14.6065C8.58741 14.4165 9.04417 14.4408 9.04417 14.4408L12.0804 14.44C12.0804 14.44 12.3661 14.494 12.5713 14.6384C12.7408 14.7569 12.8351 14.9834 12.8351 14.9834C12.8351 14.9834 13.345 16.6676 13.9948 17.7415C15.264 19.8375 15.8545 19.8907 16.2855 19.665C16.9147 19.3382 16.7095 17.1099 16.7095 17.1099C16.7095 17.1099 16.7377 16.1531 16.4093 15.7267C16.1563 15.3969 15.6721 15.2213 15.4609 15.1939C15.2899 15.1719 15.5756 14.8725 15.9397 14.7015C16.4261 14.4849 17.088 14.4294 18.2295 14.44C19.118 14.4484 19.3741 14.5016 19.7207 14.5814C20.7687 14.8231 20.5095 15.4607 20.5095 17.6997C20.5095 18.4171 20.4107 19.4256 20.9519 19.76C21.1852 19.9044 21.9847 20.0807 23.4074 17.7703C24.0831 16.6744 24.6204 14.8565 24.6204 14.8565C24.6204 14.8565 24.7313 14.6566 24.9039 14.5578C25.0802 14.4567 25.0749 14.459 25.3165 14.459C25.5582 14.459 27.9819 14.44 28.5139 14.44C29.0451 14.44 29.5437 14.4339 29.6295 14.7455C29.7527 15.1932 29.2374 16.7269 27.9317 18.3913C25.7862 21.1227 25.5483 20.8673 27.329 22.4466Z" fill="#333333"/>
</svg>
