<svg width="18" height="13" viewBox="0 0 18 13" fill="none" xmlns="http://www.w3.org/2000/svg">
<path d="M10.4985 2.16251C10.4064 2.07668 10.3325 1.97318 10.2813 1.85818C10.23 1.74318 10.2025 1.61904 10.2002 1.49316C10.198 1.36728 10.2212 1.24225 10.2683 1.12551C10.3155 1.00878 10.3857 0.902734 10.4747 0.81371C10.5637 0.724687 10.6697 0.654506 10.7865 0.607355C10.9032 0.560204 11.0283 0.537048 11.1541 0.539269C11.28 0.54149 11.4042 0.569042 11.5192 0.620282C11.6342 0.671522 11.7377 0.7454 11.8235 0.837508L16.8235 5.83751C16.999 6.01329 17.0977 6.25157 17.0977 6.50001C17.0977 6.74845 16.999 6.98673 16.8235 7.16251L11.8235 12.1625C11.7377 12.2546 11.6342 12.3285 11.5192 12.3797C11.4042 12.431 11.28 12.4585 11.1541 12.4607C11.0283 12.463 10.9032 12.4398 10.7865 12.3927C10.6697 12.3455 10.5637 12.2753 10.4747 12.1863C10.3857 12.0973 10.3155 11.9912 10.2683 11.8745C10.2212 11.7578 10.198 11.6327 10.2002 11.5069C10.2025 11.381 10.23 11.2568 10.2813 11.1418C10.3325 11.0268 10.4064 10.9233 10.4985 10.8375L13.8985 7.43751L1.78598 7.43751C1.53734 7.43751 1.29888 7.33874 1.12307 7.16292C0.947251 6.98711 0.848479 6.74865 0.848479 6.50001C0.848479 6.25137 0.947251 6.01291 1.12307 5.8371C1.29888 5.66128 1.53734 5.56251 1.78598 5.56251L13.8985 5.56251L10.4985 2.16251Z" fill="#333333"/>
</svg>
