<svg width="18" height="22" viewBox="0 0 18 22" fill="none" xmlns="http://www.w3.org/2000/svg">
<path fill-rule="evenodd" clip-rule="evenodd" d="M9.59317 21.2579L9.58217 21.2599L9.51117 21.2949L9.49117 21.2989L9.47717 21.2949L9.40617 21.2599C9.39551 21.2566 9.3875 21.2583 9.38217 21.2649L9.37817 21.2749L9.36117 21.7029L9.36617 21.7229L9.37617 21.7359L9.48017 21.8099L9.49517 21.8139L9.50717 21.8099L9.61117 21.7359L9.62317 21.7199L9.62717 21.7029L9.61017 21.2759C9.6075 21.2653 9.60184 21.2593 9.59317 21.2579ZM9.85817 21.1449L9.84517 21.1469L9.66017 21.2399L9.65017 21.2499L9.64717 21.2609L9.66517 21.6909L9.67017 21.7029L9.67817 21.7099L9.87917 21.8029C9.89184 21.8063 9.9015 21.8036 9.90817 21.7949L9.91217 21.7809L9.87817 21.1669C9.87484 21.1549 9.86817 21.1476 9.85817 21.1449ZM9.14317 21.1469C9.13876 21.1443 9.1335 21.1434 9.12847 21.1445C9.12344 21.1456 9.11903 21.1487 9.11617 21.1529L9.11017 21.1669L9.07617 21.7809C9.07684 21.7929 9.08251 21.8009 9.09317 21.8049L9.10817 21.8029L9.30917 21.7099L9.31917 21.7019L9.32317 21.6909L9.34017 21.2609L9.33717 21.2489L9.32717 21.2389L9.14317 21.1469Z" fill="#838383"/>
<path fill-rule="evenodd" clip-rule="evenodd" d="M11.28 5.80189e-08C11.6998 0.00010886 12.1088 0.132286 12.4493 0.377808C12.7898 0.62333 13.0444 0.96975 13.177 1.368L13.72 3H17C17.2652 3 17.5196 3.10536 17.7071 3.29289C17.8946 3.48043 18 3.73478 18 4C18 4.26522 17.8946 4.51957 17.7071 4.70711C17.5196 4.89464 17.2652 5 17 5L16.997 5.071L16.13 17.214C16.0759 17.9706 15.7372 18.6786 15.182 19.1956C14.6269 19.7125 13.8965 19.9999 13.138 20H4.862C4.10346 19.9999 3.37311 19.7125 2.81797 19.1956C2.26283 18.6786 1.92411 17.9706 1.87 17.214L1.003 5.07L1 5C0.734784 5 0.48043 4.89464 0.292893 4.70711C0.105357 4.51957 0 4.26522 0 4C0 3.73478 0.105357 3.48043 0.292893 3.29289C0.48043 3.10536 0.734784 3 1 3H4.28L4.823 1.368C4.9557 0.969588 5.21043 0.623052 5.5511 0.377515C5.89176 0.131978 6.30107 -0.000101061 6.721 5.80189e-08H11.28ZM6 8C5.75507 8.00003 5.51866 8.08996 5.33563 8.25272C5.15259 8.41547 5.03566 8.63975 5.007 8.883L5 9V15C5.00028 15.2549 5.09788 15.5 5.27285 15.6854C5.44782 15.8707 5.68695 15.9822 5.94139 15.9972C6.19584 16.0121 6.44638 15.9293 6.64183 15.7657C6.83729 15.6021 6.9629 15.3701 6.993 15.117L7 15V9C7 8.73478 6.89464 8.48043 6.70711 8.29289C6.51957 8.10536 6.26522 8 6 8ZM12 8C11.7348 8 11.4804 8.10536 11.2929 8.29289C11.1054 8.48043 11 8.73478 11 9V15C11 15.2652 11.1054 15.5196 11.2929 15.7071C11.4804 15.8946 11.7348 16 12 16C12.2652 16 12.5196 15.8946 12.7071 15.7071C12.8946 15.5196 13 15.2652 13 15V9C13 8.73478 12.8946 8.48043 12.7071 8.29289C12.5196 8.10536 12.2652 8 12 8ZM11.28 2H6.72L6.387 3H11.613L11.28 2Z" fill="#838383"/>
</svg>
