<svg width="24" height="24" viewBox="0 0 24 24" fill="none" xmlns="http://www.w3.org/2000/svg">
<path d="M22.6834 1.31686C22.2665 0.899467 21.7713 0.56835 21.2263 0.342437C20.6813 0.116524 20.0971 0.000244141 19.5071 0.000244141C18.9171 0.000244141 18.333 0.116524 17.7879 0.342437C17.2429 0.56835 16.7478 0.899467 16.3308 1.31686L2.84066 14.8076C2.2003 15.449 1.74347 16.2502 1.51769 17.128L0.0267854 22.9308C-0.0101869 23.0752 -0.00886309 23.2267 0.030626 23.3704C0.0701151 23.5141 0.146404 23.6451 0.251959 23.7503C0.357515 23.8555 0.488686 23.9313 0.632522 23.9704C0.776357 24.0094 0.927882 24.0102 1.07213 23.9728L6.87297 22.4835C7.75103 22.2585 8.55244 21.8015 9.1933 21.1605L22.6834 7.66976C23.1008 7.25277 23.4319 6.7576 23.6578 6.21256C23.8837 5.66753 24 5.08331 24 4.49331C24 3.90331 23.8837 3.31909 23.6578 2.77406C23.4319 2.22902 23.1008 1.73385 22.6834 1.31686ZM17.5424 2.52849C18.0635 2.00738 18.7702 1.71463 19.5071 1.71463C20.244 1.71463 20.9508 2.00738 21.4719 2.52849C21.9929 3.04959 22.2857 3.75636 22.2857 4.49331C22.2857 5.23026 21.9929 5.93703 21.4719 6.45814L20.1369 7.79315L16.2074 3.8635L17.5424 2.52849ZM14.9958 5.07513L18.9253 9.00478L7.98172 19.9488C7.55758 20.3727 7.02722 20.6746 6.44626 20.8229L2.04722 21.9539L3.17826 17.5547C3.32576 16.9734 3.62775 16.4428 4.05224 16.0192L14.9958 5.07513Z" fill="#929292"/>
<path d="M19.5068 0.500244C19.9655 0.500244 20.4206 0.579392 20.8516 0.733643L21.0352 0.803955C21.4588 0.979577 21.8485 1.22699 22.1875 1.53442L22.3301 1.67017C22.6547 1.99448 22.9203 2.37251 23.1162 2.78638L23.1963 2.96509C23.397 3.44943 23.5 3.96911 23.5 4.49341C23.5 4.95221 23.4209 5.40709 23.2666 5.83813L23.1963 6.02075C23.0206 6.44453 22.7733 6.83499 22.4658 7.17407L22.3301 7.31567V7.31665L8.83984 20.8069C8.33452 21.3124 7.71822 21.6908 7.04199 21.9133L6.74902 21.9993L0.948242 23.4885H0.946289C0.916162 23.4963 0.885354 23.5004 0.854492 23.5002L0.763672 23.4875C0.733605 23.4794 0.704464 23.4679 0.677734 23.4524L0.604492 23.3958C0.582814 23.3741 0.564175 23.3497 0.548828 23.3235L0.512695 23.2375C0.50456 23.2078 0.500288 23.1773 0.5 23.1467L0.510742 23.0549L2.00195 17.2522C2.20547 16.4612 2.61638 15.7384 3.19336 15.1604L3.19434 15.1614L16.6846 1.67017C17.0088 1.34567 17.3861 1.0799 17.7998 0.884033L17.9795 0.803955C18.4637 0.603295 18.9827 0.500281 19.5068 0.500244ZM14.6426 4.72192L3.69824 15.6653C3.21058 16.1521 2.86415 16.7621 2.69434 17.4299L1.5625 21.8293L1.35254 22.6487L2.17188 22.4377L6.57031 21.3069C7.15445 21.1577 7.69415 20.8737 8.14648 20.4788L8.33496 20.303V20.302L19.2793 9.35864L19.6328 9.00513L14.9961 4.36841L14.6426 4.72192ZM19.5068 1.21509C18.6918 1.21516 17.908 1.51824 17.3066 2.06274L17.1885 2.17505L15.5 3.86353L20.1367 8.50024L21.8252 6.81177C22.44 6.19692 22.7861 5.36293 22.7861 4.49341C22.7861 3.62385 22.44 2.78992 21.8252 2.17505C21.2104 1.56021 20.3763 1.21509 19.5068 1.21509Z" stroke="#333333" stroke-opacity="0.16"/>
</svg>
