<svg width="11" height="8" viewBox="0 0 11 8" fill="none" xmlns="http://www.w3.org/2000/svg">
<path d="M6.27206 1.0552C6.21219 0.999412 6.16417 0.932137 6.13086 0.857387C6.09756 0.782638 6.07965 0.701946 6.0782 0.620125C6.07676 0.538304 6.09181 0.45703 6.12246 0.381152C6.15311 0.305274 6.19873 0.236347 6.25659 0.178481C6.31446 0.120616 6.38338 0.0749987 6.45926 0.0443504C6.53514 0.0137021 6.61641 -0.00134897 6.69823 9.46681e-05C6.78005 0.00153831 6.86075 0.0194471 6.9355 0.052753C7.01025 0.086059 7.07752 0.13408 7.13331 0.19395L10.3833 3.44395C10.4974 3.55821 10.5615 3.71309 10.5615 3.87458C10.5615 4.03606 10.4974 4.19094 10.3833 4.3052L7.13331 7.5552C7.07752 7.61507 7.01025 7.66309 6.9355 7.6964C6.86075 7.7297 6.78005 7.74761 6.69823 7.74906C6.61641 7.7505 6.53514 7.73545 6.45926 7.7048C6.38338 7.67415 6.31446 7.62853 6.25659 7.57067C6.19873 7.5128 6.15311 7.44388 6.12246 7.368C6.09181 7.29212 6.07676 7.21085 6.0782 7.12903C6.07965 7.0472 6.09756 6.96651 6.13086 6.89176C6.16417 6.81701 6.21219 6.74974 6.27206 6.69395L8.48206 4.48395L0.608934 4.48395C0.447318 4.48395 0.292321 4.41975 0.178041 4.30547C0.0637608 4.19119 -0.000440598 4.03619 -0.000440598 3.87457C-0.000440598 3.71296 0.0637608 3.55796 0.178041 3.44368C0.292321 3.3294 0.447318 3.2652 0.608934 3.2652L8.48206 3.2652L6.27206 1.0552Z" fill="#FFFBFB"/>
</svg>
